<?xml version="1.0" encoding="utf-8"?>
<!-- Generator: Adobe Illustrator 26.3.1, SVG Export Plug-In . SVG Version: 6.00 Build 0)  -->
<svg version="1.1" id="Layer_1" xmlns="http://www.w3.org/2000/svg" xmlns:xlink="http://www.w3.org/1999/xlink" x="0px" y="0px"
	 viewBox="0 0 130 43" style="enable-background:new 0 0 130 43;" xml:space="preserve">
<style type="text/css">
	.st0{fill:#FFFFFF;}
</style>
<g>
	<g id="g10" transform="matrix(0.10229705383154744,0,0,-0.10229705383154744,5.5646117581782155,509.861123380637) ">
		<g id="g12" transform="translate(0,-2.2445411682128906) scale(0.10000000149011612) ">
			<path id="path14" class="st0" d="M8105.7,46282.4c-24.1-4.6-66.5-12.6-104.3-12.6c-129.4,0-202.8,54.4-202.8,202.8
				c0,154.1,97.4,208.5,219.9,208.5c37.8,0,63-6.9,82.4-12.6v-72.8c-14.3,4-54.3,10.9-84.1,10.9c-71.1,0-127.2-10.9-127.2-131.1
				c0-118.6,58.5-131.8,122.6-131.8c34.4,0,62.4,6.9,93.4,13.2V46282.4"/>
			<path id="path16" class="st0" d="M8470.1,46475.9c0,106.5-34.9,139.2-91.7,139.2c-57.8,0-92.8-38.4-94.5-139.2
				c-1.7-100.8,35-139.7,92.8-139.7C8434,46336.2,8470.1,46369.4,8470.1,46475.9z M8192.8,46475.4c0,152.4,73.9,205.6,185,205.6
				c111.1,0,183.2-56.8,183.2-205.6c0-148.3-72.7-205.6-184.4-205.6C8265.6,46269.7,8192.8,46325.2,8192.8,46475.4"/>
			<path id="path18" class="st0" d="M8785.1,46482.8c42.4,0,80.2,12.6,80.2,63.6c0,50.4-29.7,59-79,59h-28v-122.6L8785.1,46482.8
				L8785.1,46482.8z M8671.8,46675.3h111.1c122.5,0,173-32.7,173-125.4c0-75.6-38.9-95.7-84.8-109.5v-6.8l12.1-2.3
				c41.8-15.5,66.4-95.1,92.2-144.9v-10.8h-95.7c-18.9,53.3-38.9,134-79,145.5h-42.3v-145.5h-86.5L8671.8,46675.3"/>
			<path id="path20" class="st0" d="M9163.9,46474.2h31.5c50.4,0,75.5,16,75.5,65.9c0,50.4-25.2,64.7-71.5,64.7h-35.5V46474.2z
				 M9077.4,46675.3h108.8c118,0,175.2-26.9,175.2-129.4c0-102.6-68.1-132.3-154-132.3h-43.5v-138h-86.5V46675.3"/>
			<path id="path22" class="st0" d="M9713.2,46475.9c0,106.5-34.9,139.2-91.6,139.2c-57.9,0-92.8-38.4-94.6-139.2
				c-1.7-100.8,35-139.7,92.9-139.7C9677.2,46336.2,9713.2,46369.4,9713.2,46475.9z M9436,46475.4c0,152.4,73.9,205.6,185,205.6
				s183.3-56.8,183.3-205.6c0-148.3-72.7-205.6-184.4-205.6C9508.8,46269.7,9436,46325.2,9436,46475.4"/>
			<path id="path24" class="st0" d="M10028.3,46482.8c42.5,0,80.3,12.6,80.3,63.6c0,50.4-29.8,59-79.1,59h-28v-122.6
				L10028.3,46482.8L10028.3,46482.8z M9915,46675.3h111.1c122.6,0,173-32.7,173-125.4c0-75.6-39-95.7-84.8-109.5v-6.8l12.1-2.3
				c41.8-15.5,66.4-95.1,92.2-144.9v-10.8h-95.7c-18.9,53.3-39,134-79.1,145.5h-42.3v-145.5H9915V46675.3"/>
			<path id="path26" class="st0" d="M10518.8,46422.6l-40.1,138l-4.6,22.4h-5.7l-4.6-22.4l-41.8-138
				C10422,46422.6,10518.8,46422.6,10518.8,46422.6z M10286.8,46284.6l142.7,393.5h84.8l149.4-393.5v-9.1h-95.6l-33.3,89.3h-125.4
				l-29.2-89.3h-93.4V46284.6"/>
			<path id="path28" class="st0" d="M10811,46606.5l-112.3-2.9v71.6h311.7v-71.6l-112.9,2.9v-331h-86.5V46606.5"/>
			<path id="path30" class="st0" d="M11102.1,46275.5v399.8h86.5v-399.8H11102.1"/>
			<path id="path32" class="st0" d="M11568.3,46475.9c0,106.5-34.9,139.2-91.6,139.2c-57.8,0-92.8-38.4-94.5-139.2
				c-1.7-100.8,34.9-139.7,92.8-139.7C11532.3,46336.2,11568.3,46369.4,11568.3,46475.9z M11291.2,46475.4
				c0,152.4,73.8,205.6,184.9,205.6c111.1,0,183.3-56.8,183.3-205.6c0-148.3-72.7-205.6-184.4-205.6
				C11363.9,46269.7,11291.2,46325.2,11291.2,46475.4"/>
			<path id="path34" class="st0" d="M11770.1,46675.3h75.6l147.8-210.2l20.5-34.4h5.2v244.6h86.5v-399.8h-73.8l-151.9,218.2
				l-17.2,29.2h-6.2v-247.4h-86.5L11770.1,46675.3"/>
			<path id="path36" class="st0" d="M2477,49392.7l-647.8-2367.6h-376.5l-457.9,1719.7l-464.7-1719.7H153.6l-647.8,2367.6h373.1
				L340.1,47673l464.7,1719.7h369.7l468.1-1719.7l461.3,1719.7H2477"/>
			<path id="path38" class="st0" d="M2649.7,49385.9l373.1,30.5v-580l-6.8-217.1h13.6c172.9,64.4,312.1,95,481.7,95
				c301.9,0,505.4-135.7,505.4-654.6v-1034.6h-373.1v1004.1c0,312-152.6,352.7-325.6,352.7c-108.6,0-200.2-23.8-295.1-50.9v-1305.9
				h-373.1V49385.9"/>
			<path id="path40" class="st0" d="M5030.7,48690.6h254.4l50.9-135.7h23.8c98.3,84.8,254.3,159.4,457.9,159.4c23.7,0,50.9,0,78-3.4
				v-366.3c-67.8,10.1-139,20.3-210.3,20.3c-101.8,0-183.1-23.7-281.5-67.8v-1272h-373.1L5030.7,48690.6"/>
			<path id="path42" class="st0" d="M9433,47849.4c0,315.4-50.9,573.2-349.3,573.2c-301.9,0-376.5-247.6-376.5-573.2
				c0-301.9,61-563.1,359.6-563.1C9365.2,47286.3,9433,47533.9,9433,47849.4z M9080.3,48714.3c529.1,0,732.7-312.1,732.7-864.9
				c0-519-190-858.2-739.5-858.2c-549.5,0-742.8,339.3-742.8,858.2C8330.7,48402.3,8551.1,48714.3,9080.3,48714.3"/>
			<path id="path44" class="st0" d="M11106.1,47849.4c0,315.4-51,573.2-349.4,573.2c-301.9,0-376.5-247.6-376.5-573.2
				c0-301.9,61-563.1,359.5-563.1S11106.1,47533.9,11106.1,47849.4z M10753.3,48714.3c529.1,0,732.7-312.1,732.7-864.9
				c0-519-190-858.2-739.5-858.2s-742.9,339.3-742.9,858.2C10003.6,48402.3,10224.1,48714.3,10753.3,48714.3"/>
			<path id="path46" class="st0" d="M11727.5,47025.1v2360.8l373.1,30.5v-2391.3H11727.5"/>
			<path id="path48" class="st0" d="M4528.7,48883.9c183.2,0,223.9,115.3,223.9,240.9c0,125.5-30.5,237.4-223.9,237.4
				c-186.5,0-220.5-111.9-220.5-237.4C4308.3,48999.2,4345.6,48883.9,4528.7,48883.9"/>
			<path id="path50" class="st0" d="M7377.7,47327.1c-39.6,0-72.4,0.5-103.3,1.2c175.1,166.9,336.8,334.4,483.6,499.6
				C7736.4,47431.6,7590.3,47327.1,7377.7,47327.1z M7381.1,48354.7c163.1,0,277.5-39.8,335.7-164.9
				c-174.1-210-379.6-429.8-610.4-650.2v767.6C7198,48337.9,7286.2,48354.7,7381.1,48354.7z M8580.4,49713.9
				c-279,323.3-1164.4,39.1-2152.4-644.7v347.2l-373.1-30.5v-2360.8H6428v1871.8c870.1,618.5,1637.2,903.9,1856.8,649.4
				c148.9-172.5,15.5-557.7-315.5-1027.7c-104.2,134.4-250.1,195.8-418.6,195.8c-186.6,0-393.4-84.8-505.4-145.8l-30.5,122.1h-281.5
				v-1488.3c-1107.3-948.2-2218.7-1459.7-2490.7-1144.5c-142.4,165.1-26.3,524.8,274.2,967.3h198.5v1665.4h-373.1v-1665.4h-0.1
				c-372.1-554.9-511.6-1021.2-320.6-1242.6c330.1-382.5,1517.3,93.7,2711.8,1068.8v-619.8l373.1,40.7v763.1
				c0,0,176-33.9,335.8-33.9c434.1,0,695.3,288.3,695.3,871.8c0,141.7-14.5,263.1-40.6,366.7
				C8590.8,48894.7,8798.2,49461.5,8580.4,49713.9"/>
		</g>
	</g>
</g>
</svg>
