<?xml version="1.0" encoding="utf-8"?>
<!-- Generator: Adobe Illustrator 18.0.0, SVG Export Plug-In . SVG Version: 6.00 Build 0)  -->
<!DOCTYPE svg PUBLIC "-//W3C//DTD SVG 1.1//EN" "http://www.w3.org/Graphics/SVG/1.1/DTD/svg11.dtd">
<svg version="1.1" id="Layer_1" xmlns="http://www.w3.org/2000/svg" xmlns:xlink="http://www.w3.org/1999/xlink" x="0px" y="0px"
	 width="83px" height="82.5px" viewBox="0 0 83 82.5" enable-background="new 0 0 83 82.5" xml:space="preserve">
<g>
	<path fill="#D2DE2A" d="M41,82.2c-22.6,0-40.9-18.4-40.9-40.9S18.5,0.4,41,0.4C63.6,0.4,82,18.7,82,41.3S63.6,82.2,41,82.2z
		 M41,4.4C20.7,4.4,4.1,20.9,4.1,41.3c0,20.4,16.6,36.9,36.9,36.9C61.4,78.2,78,61.7,78,41.3C78,20.9,61.4,4.4,41,4.4z"/>
</g>
<g>
	<path fill="#D2DE2A" d="M32.1,61.5c-3.1,0-5.6-2.5-5.6-5.6V27.3c0-3.1,2.5-5.6,5.6-5.6c1,0,2,0.3,2.8,0.8l24.7,14.3
		c1.8,1,2.8,2.8,2.8,4.9c0,2-1.1,3.9-2.8,4.9L34.9,60.8C34,61.2,33,61.5,32.1,61.5z M32.1,25.7c-0.8,0-1.6,0.6-1.6,1.6v28.5
		c0,1,0.9,1.6,1.6,1.6c0.3,0,0.6-0.1,0.8-0.2L57.6,43c0.7-0.4,0.8-1.1,0.8-1.4c0-0.3-0.1-1-0.8-1.4L32.9,25.9
		C32.6,25.8,32.3,25.7,32.1,25.7z"/>
</g>
</svg>
