<?xml version="1.0" encoding="utf-8"?>
<!-- Generator: Adobe Illustrator 18.0.0, SVG Export Plug-In . SVG Version: 6.00 Build 0)  -->
<!DOCTYPE svg PUBLIC "-//W3C//DTD SVG 1.1//EN" "http://www.w3.org/Graphics/SVG/1.1/DTD/svg11.dtd">
<svg version="1.1" id="Layer_1" xmlns="http://www.w3.org/2000/svg" xmlns:xlink="http://www.w3.org/1999/xlink" x="0px" y="0px"
	 width="83px" height="82.5px" viewBox="0 0 83 82.5" enable-background="new 0 0 83 82.5" xml:space="preserve">
<g>
	<path fill="#D2DE2A" d="M40.8,82.2c-22.6,0-40.9-18.4-40.9-40.9S18.2,0.4,40.8,0.4c22.6,0,40.9,18.4,40.9,40.9S63.4,82.2,40.8,82.2
		z M40.8,4.4C20.4,4.4,3.9,20.9,3.9,41.3c0,20.4,16.6,36.9,36.9,36.9c20.4,0,36.9-16.6,36.9-36.9C77.7,20.9,61.2,4.4,40.8,4.4z"/>
</g>
<g>
	<g>
		<g>
			<circle fill="#D2DE2A" stroke="#D2DE2A" stroke-miterlimit="10" cx="25.4" cy="30.4" r="1.9"/>
		</g>
	</g>
	<g>
		<g>
			<path fill="#D2DE2A" stroke="#D2DE2A" stroke-miterlimit="10" d="M27.4,33.6l-2,1.5l-2-1.5c-2.5,0.8-2.5,3.3-2.5,3.3h4.5h4.5
				C29.9,36.9,30,34.3,27.4,33.6z"/>
		</g>
	</g>
	<g>
		<g>
			<path fill="#D2DE2A" stroke="#D2DE2A" stroke-miterlimit="10" d="M17,24.4v16.6h16.6V24.4H17z M32.1,39.6H18.5V25.9h13.6V39.6z"
				/>
		</g>
	</g>
	<g>
		<g>
			<rect x="37.3" y="28.3" fill="#D2DE2A" stroke="#D2DE2A" stroke-miterlimit="10" width="25.9" height="1.5"/>
		</g>
	</g>
	<g>
		<g>
			<rect x="37.3" y="33.8" fill="#D2DE2A" stroke="#D2DE2A" stroke-miterlimit="10" width="22.2" height="1.5"/>
		</g>
	</g>
	<g>
		<g>
			<circle fill="#D2DE2A" stroke="#D2DE2A" stroke-miterlimit="10" cx="56.8" cy="48.9" r="1.9"/>
		</g>
	</g>
	<g>
		<g>
			<path fill="#D2DE2A" stroke="#D2DE2A" stroke-miterlimit="10" d="M58.9,52.1l-2,1.5l-2-1.5c-2.5,0.8-2.5,3.3-2.5,3.3h4.5h4.5
				C61.4,55.4,61.4,52.8,58.9,52.1z"/>
		</g>
	</g>
	<g>
		<g>
			<path fill="#D2DE2A" stroke="#D2DE2A" stroke-miterlimit="10" d="M48.4,42.9v16.6h16.6V42.9H48.4z M63.6,58.1H49.9V44.4h13.6
				V58.1z"/>
		</g>
	</g>
	<g>
		<g>
			<rect x="18.8" y="48.6" fill="#D2DE2A" stroke="#D2DE2A" stroke-miterlimit="10" width="25.9" height="1.5"/>
		</g>
	</g>
	<g>
		<g>
			<rect x="22.5" y="54.2" fill="#D2DE2A" stroke="#D2DE2A" stroke-miterlimit="10" width="22.2" height="1.5"/>
		</g>
	</g>
</g>
</svg>
