<?xml version="1.0" encoding="utf-8"?>
<!-- Generator: Adobe Illustrator 24.1.2, SVG Export Plug-In . SVG Version: 6.00 Build 0)  -->
<svg version="1.1" id="Layer_1" xmlns="http://www.w3.org/2000/svg" xmlns:xlink="http://www.w3.org/1999/xlink" x="0px" y="0px"
	 viewBox="0 0 383.1 309.6" style="enable-background:new 0 0 383.1 309.6;" xml:space="preserve">
<style type="text/css">
	.st0{fill:none;stroke:#1F1F24;stroke-width:2;stroke-miterlimit:10;stroke-dasharray:12,8;}
	.st1{fill:#1F1F24;}
	.st2{fill:#1F1F24;stroke:#1F1F24;stroke-width:3;stroke-miterlimit:10;}
	.st3{fill:#231F20;}
	.st4{fill:none;stroke:#1F1F24;stroke-width:3;stroke-miterlimit:10;stroke-dasharray:12,8;}
	.st5{fill:none;stroke:#1F1F24;stroke-width:7;stroke-miterlimit:10;}
	.st6{fill:#4F49FF;}
	.st7{fill:#A4A4BC;}
	.st8{fill:#FFFFFF;}
</style>
<path class="st0" d="M22.3-335.3l-147-147c-8.3-8.3-8.3-21.8,0-30.2l147-147c8.3-8.3,21.8-8.3,30.2,0l147,147
	c8.3,8.3,8.3,21.8,0,30.2l-147,147C44.1-327,30.6-327,22.3-335.3z"/>
<path class="st0" d="M367.6-335.3l-147-147c-8.3-8.3-8.3-21.8,0-30.2l147-147c8.3-8.3,21.8-8.3,30.2,0l147,147
	c8.3,8.3,8.3,21.8,0,30.2l-147,147C389.4-327,375.9-327,367.6-335.3z"/>
<circle class="st1" cx="209.7" cy="-497.4" r="10.9"/>
<circle class="st1" cx="-131.3" cy="-497.4" r="10.9"/>
<circle class="st2" cx="-601.4" cy="-115.7" r="10.9"/>
<circle class="st2" cx="-601.4" cy="183.3" r="10.9"/>
<circle class="st2" cx="-750.9" cy="34.8" r="10.9"/>
<circle class="st2" cx="-451.9" cy="34.8" r="10.9"/>
<circle class="st1" cx="550.6" cy="-497.4" r="10.9"/>
<g>
	<g>
		<path class="st3" d="M-141.5-633.9c-0.6-0.2-1.1-0.6-1.6-1.1c-0.5-0.5-0.8-1.2-1.1-1.9c-0.3-0.8-0.4-1.7-0.4-2.7
			c0-1,0.1-1.9,0.4-2.6c0.3-0.8,0.6-1.4,1.1-1.9c0.5-0.5,1-0.9,1.6-1.1c0.6-0.2,1.2-0.4,1.9-0.4c0.4,0,0.8,0.1,1.1,0.2
			c0.4,0.1,0.7,0.3,1,0.4s0.5,0.5,0.7,0.8v-6.5h2.8h0.3v0.2c-0.1,0.1-0.2,0.2-0.2,0.3c0,0.1,0,0.3,0,0.6l0,14.3c0,0.3,0,0.5,0.1,0.8
			c0,0.3,0.1,0.5,0.2,0.8h-2.8c-0.1-0.2-0.1-0.4-0.2-0.5c0-0.1-0.1-0.3-0.1-0.4c0-0.1,0-0.3,0-0.5c-0.2,0.4-0.5,0.7-0.8,0.9
			c-0.3,0.2-0.6,0.4-1,0.5c-0.4,0.1-0.7,0.2-1.2,0.2C-140.3-633.5-140.9-633.7-141.5-633.9z M-138.1-636.1c0.3-0.2,0.5-0.4,0.7-0.7
			c0.2-0.3,0.3-0.7,0.4-1.2c0.1-0.5,0.1-1,0.1-1.7c0-0.8-0.1-1.6-0.3-2.1c-0.2-0.6-0.4-1-0.8-1.3c-0.4-0.3-0.8-0.4-1.4-0.4
			c-0.4,0-0.8,0.1-1.1,0.3c-0.3,0.2-0.6,0.4-0.8,0.7c-0.2,0.3-0.4,0.7-0.5,1.2c-0.1,0.5-0.2,1-0.2,1.5c0,0.8,0.1,1.5,0.3,2.1
			c0.2,0.6,0.5,1,0.9,1.3c0.4,0.3,0.8,0.5,1.3,0.5C-138.7-635.9-138.4-635.9-138.1-636.1z"/>
		<path class="st3" d="M-130.4-633.7v-2.3h2.9v-7.1h-2.8v-2.3h5.7v9.4h2.7v2.3H-130.4z M-126.2-647.9c-0.5,0-0.9-0.2-1.3-0.5
			s-0.5-0.8-0.5-1.2c0-0.5,0.2-0.9,0.5-1.3c0.3-0.3,0.8-0.5,1.3-0.5c0.5,0,0.9,0.2,1.3,0.5c0.4,0.3,0.5,0.8,0.5,1.2
			c0,0.5-0.2,0.9-0.5,1.2C-125.3-648.1-125.7-647.9-126.2-647.9z"/>
		<path class="st3" d="M-115.2-633.7c-0.7-0.1-1.3-0.3-1.8-0.6s-1.1-0.6-1.6-1.1l1.3-2.4l0.1-0.2l0.2,0.1c0.1,0.1,0.1,0.3,0.2,0.4
			c0.1,0.1,0.2,0.3,0.4,0.5c0.4,0.4,0.9,0.6,1.5,0.8c0.5,0.2,1.2,0.3,1.9,0.3c0.5,0,0.9-0.1,1.2-0.2c0.3-0.1,0.6-0.2,0.8-0.4
			c0.2-0.2,0.3-0.4,0.3-0.6c0-0.2-0.1-0.4-0.2-0.5c-0.1-0.1-0.3-0.3-0.5-0.4c-0.2-0.1-0.5-0.2-0.9-0.4c-0.4-0.1-0.8-0.3-1.3-0.4
			c-0.9-0.2-1.6-0.5-2.3-0.8c-0.6-0.3-1.1-0.7-1.5-1.2c-0.3-0.5-0.5-1-0.5-1.6c0-0.6,0.2-1.2,0.6-1.7c0.4-0.5,0.9-0.9,1.6-1.2
			c0.7-0.3,1.5-0.4,2.5-0.4c0.5,0,1,0,1.4,0.1c0.4,0.1,0.9,0.2,1.3,0.3c0.4,0.1,0.8,0.3,1.1,0.6c0.3,0.2,0.7,0.5,1,0.8l-1.4,2
			l-0.2,0.2l-0.2-0.2c0-0.1-0.1-0.3-0.1-0.4s-0.2-0.3-0.4-0.5c-0.3-0.3-0.7-0.4-1.2-0.6c-0.4-0.1-0.9-0.2-1.3-0.2
			c-0.6,0-1.1,0.1-1.5,0.3c-0.4,0.2-0.6,0.4-0.6,0.8c0,0.2,0.1,0.4,0.3,0.6s0.5,0.3,0.9,0.5c0.4,0.2,1,0.3,1.7,0.5
			c1,0.2,1.7,0.5,2.3,0.9c0.6,0.3,1,0.7,1.3,1.2s0.4,1,0.4,1.6c0,0.6-0.2,1.3-0.6,1.8s-0.9,1-1.6,1.3c-0.7,0.3-1.6,0.5-2.7,0.5
			C-113.9-633.5-114.6-633.6-115.2-633.7z"/>
		<path class="st3" d="M-102.3-634c-0.7-0.3-1.4-0.7-1.9-1.2c-0.6-0.5-1-1.2-1.3-1.9c-0.3-0.7-0.5-1.5-0.5-2.4
			c0-0.8,0.2-1.6,0.5-2.4c0.3-0.7,0.7-1.4,1.3-2c0.6-0.6,1.2-1,1.9-1.3s1.6-0.5,2.4-0.5c1.1,0,2,0.2,2.9,0.6s1.5,1,1.9,1.7l-1.6,1.8
			l-0.2,0.2l-0.2-0.2c0-0.1,0-0.3-0.1-0.4c0-0.1-0.1-0.3-0.3-0.5c-0.3-0.3-0.7-0.5-1.1-0.7c-0.4-0.1-0.8-0.2-1.4-0.2
			c-0.4,0-0.8,0.1-1.2,0.3c-0.4,0.2-0.7,0.4-1,0.7c-0.3,0.3-0.5,0.7-0.7,1.2c-0.2,0.5-0.3,1-0.3,1.6c0,0.6,0.1,1.1,0.3,1.5
			c0.2,0.4,0.4,0.8,0.7,1.2c0.3,0.3,0.6,0.6,1,0.7c0.4,0.2,0.8,0.3,1.3,0.3c0.4,0,0.7-0.1,1-0.2c0.3-0.1,0.7-0.3,1-0.5
			c0.3-0.2,0.6-0.5,0.9-0.9l1.6,1.8c-0.6,0.7-1.4,1.2-2.2,1.5c-0.8,0.3-1.7,0.5-2.5,0.5C-100.8-633.5-101.6-633.7-102.3-634z"/>
		<path class="st3" d="M-87.9-633.5c-1.1,0-2-0.3-2.9-0.8c-0.9-0.5-1.5-1.2-2-2.1c-0.5-0.9-0.7-2-0.7-3.2c0-1.1,0.2-2.2,0.7-3.1
			c0.5-0.9,1.2-1.6,2-2.2c0.9-0.5,1.8-0.8,2.9-0.8c1.1,0,2,0.3,2.9,0.8c0.9,0.5,1.5,1.3,2,2.2c0.5,0.9,0.8,1.9,0.8,3.1
			c0,1.2-0.3,2.3-0.8,3.2c-0.5,0.9-1.2,1.6-2,2.1S-86.8-633.5-87.9-633.5z M-87.9-635.8c0.6,0,1-0.2,1.5-0.5s0.7-0.8,1-1.3
			c0.2-0.6,0.4-1.2,0.4-2c0-0.8-0.1-1.4-0.4-2c-0.2-0.6-0.6-1-1-1.3s-0.9-0.5-1.5-0.5c-0.5,0-1,0.2-1.4,0.5c-0.4,0.3-0.8,0.7-1,1.3
			c-0.2,0.6-0.4,1.2-0.4,2c0,0.7,0.1,1.4,0.4,2c0.2,0.6,0.6,1,1,1.3C-88.9-636-88.4-635.8-87.9-635.8z"/>
		<path class="st3" d="M-76.2-633.7l-4.5-11.7h3l3,8.4H-75l1.6-3.8c0.3-0.8,0.6-1.6,0.8-2.4c0.2-0.8,0.3-1.5,0.4-2.2h2.7
			c-0.1,0.7-0.3,1.5-0.5,2.3s-0.6,1.7-1,2.5l-2.9,6.8H-76.2z"/>
		<path class="st3" d="M-61.7-633.5c-0.9,0-1.6-0.1-2.4-0.4c-0.7-0.3-1.4-0.7-1.9-1.2c-0.5-0.5-1-1.1-1.2-1.9
			c-0.3-0.7-0.4-1.6-0.4-2.5c0-1,0.1-1.8,0.4-2.6c0.3-0.8,0.7-1.4,1.2-1.9c0.5-0.5,1.1-0.9,1.8-1.2c0.7-0.3,1.4-0.4,2.2-0.4
			c0.7,0,1.4,0.1,2,0.4s1.2,0.6,1.6,1.1c0.5,0.5,0.8,1.1,1.1,1.8c0.3,0.7,0.4,1.5,0.4,2.5c0,0.2,0,0.4,0,0.6c0,0.2,0,0.4,0,0.6h-7.9
			c0,0.5,0.1,1,0.3,1.4c0.2,0.4,0.4,0.7,0.7,0.9c0.3,0.2,0.6,0.4,1,0.5s0.8,0.2,1.2,0.2c0.4,0,0.7,0,1-0.1c0.3-0.1,0.6-0.2,0.9-0.4
			c0.3-0.2,0.6-0.4,0.9-0.7l1.5,1.4c-0.4,0.4-0.8,0.8-1.3,1.1c-0.5,0.3-1,0.5-1.5,0.6S-61.1-633.5-61.7-633.5z M-64.8-641h5.1
			c0-0.4-0.1-0.7-0.2-1c-0.1-0.3-0.3-0.6-0.5-0.8s-0.5-0.4-0.8-0.5c-0.3-0.1-0.6-0.2-1-0.2c-0.3,0-0.6,0-0.9,0.1
			c-0.3,0.1-0.6,0.2-0.8,0.4c-0.2,0.2-0.4,0.5-0.6,0.8C-64.7-641.8-64.8-641.4-64.8-641z"/>
		<path class="st3" d="M-53.6-645.4h3l0,3.3l-0.3-0.2c0.1-0.5,0.2-1,0.4-1.4c0.2-0.4,0.5-0.8,0.9-1.1c0.3-0.3,0.7-0.5,1.2-0.7
			c0.4-0.2,0.8-0.2,1.3-0.2c0.7,0,1.3,0.1,1.8,0.3s1,0.6,1.5,1l-1.2,2.4l-0.1,0.2l-0.2-0.1c-0.1-0.1-0.1-0.3-0.2-0.4
			c-0.1-0.1-0.2-0.3-0.4-0.5c-0.2-0.2-0.5-0.3-0.8-0.4c-0.3-0.1-0.5-0.2-0.9-0.2c-0.4,0-0.8,0.1-1.2,0.2s-0.7,0.3-1,0.6
			c-0.3,0.3-0.5,0.6-0.7,1.1c-0.2,0.4-0.2,1-0.2,1.6v6.1h-2.9V-645.4z"/>
		<path class="st3" d="M-41.4-629.6c-0.5-0.2-0.9-0.5-1.3-0.8l1-2l0.1-0.2l0.2,0.1c0.1,0.1,0.1,0.3,0.2,0.4c0.1,0.1,0.2,0.3,0.4,0.4
			c0.1,0.1,0.3,0.1,0.4,0.2c0.1,0,0.3,0.1,0.5,0.1c0.3,0,0.6-0.1,0.9-0.3s0.5-0.5,0.7-0.8c0.2-0.4,0.4-0.9,0.6-1.5l2.6-7.2
			c0.3-0.7,0.5-1.4,0.7-2.1c0.2-0.7,0.3-1.4,0.3-2.1h2.7c-0.1,0.8-0.2,1.5-0.5,2.4c-0.3,0.8-0.6,1.6-0.9,2.4l-2.9,7.9
			c-0.5,1.2-1.1,2.1-1.7,2.6c-0.7,0.5-1.5,0.8-2.4,0.8C-40.4-629.3-40.9-629.4-41.4-629.6z M-42.3-645.4h2.9l3.5,8.9l-1.5,3
			L-42.3-645.4z"/>
	</g>
</g>
<g>
	<g>
		<path class="st1" d="M6.1,162.6v-1.8h2.3v-5.5H6.2v-1.8h4.4v7.3h2.1v1.8H6.1z M9.4,151.6c-0.4,0-0.7-0.1-1-0.4s-0.4-0.6-0.4-1
			c0-0.4,0.1-0.7,0.4-1c0.3-0.3,0.6-0.4,1-0.4c0.4,0,0.7,0.1,1,0.4s0.4,0.6,0.4,1s-0.1,0.7-0.4,1S9.7,151.6,9.4,151.6z"/>
		<path class="st1" d="M17.4,162.5c-0.5-0.2-0.9-0.5-1.2-0.9c-0.4-0.4-0.6-0.9-0.8-1.5S15,158.8,15,158c0-0.8,0.1-1.5,0.3-2
			c0.2-0.6,0.5-1.1,0.8-1.5c0.4-0.4,0.8-0.7,1.2-0.9c0.5-0.2,1-0.3,1.5-0.3c0.3,0,0.6,0,0.9,0.1c0.3,0.1,0.5,0.2,0.8,0.3
			c0.2,0.2,0.4,0.4,0.6,0.6v-5h2.2h0.2v0.2c-0.1,0.1-0.1,0.2-0.1,0.3c0,0.1,0,0.2,0,0.5l0,11.1c0,0.2,0,0.4,0,0.6
			c0,0.2,0.1,0.4,0.2,0.6h-2.2c-0.1-0.2-0.1-0.3-0.1-0.4c0-0.1,0-0.2,0-0.3c0-0.1,0-0.2,0-0.4c-0.2,0.3-0.4,0.5-0.6,0.7
			c-0.2,0.2-0.5,0.3-0.8,0.4c-0.3,0.1-0.6,0.1-0.9,0.1C18.3,162.8,17.8,162.7,17.4,162.5z M20,160.8c0.2-0.1,0.4-0.3,0.6-0.5
			s0.3-0.5,0.3-0.9C21,159,21,158.5,21,158c0-0.7-0.1-1.2-0.2-1.6c-0.1-0.4-0.3-0.8-0.6-1c-0.3-0.2-0.6-0.3-1.1-0.3
			c-0.3,0-0.6,0.1-0.8,0.2c-0.3,0.1-0.5,0.3-0.6,0.6c-0.2,0.3-0.3,0.6-0.4,0.9c-0.1,0.4-0.1,0.8-0.1,1.2c0,0.6,0.1,1.2,0.3,1.6
			c0.2,0.4,0.4,0.8,0.7,1c0.3,0.2,0.6,0.4,1,0.4C19.5,161,19.8,160.9,20,160.8z"/>
		<path class="st1" d="M29.7,162.8c-0.7,0-1.3-0.1-1.8-0.3s-1.1-0.5-1.5-0.9c-0.4-0.4-0.7-0.9-1-1.5c-0.2-0.6-0.3-1.2-0.3-2
			c0-0.7,0.1-1.4,0.3-2c0.2-0.6,0.5-1.1,0.9-1.5c0.4-0.4,0.9-0.7,1.4-0.9c0.5-0.2,1.1-0.3,1.7-0.3c0.5,0,1.1,0.1,1.5,0.3
			s0.9,0.5,1.3,0.8c0.4,0.4,0.7,0.8,0.9,1.4s0.3,1.2,0.3,1.9c0,0.1,0,0.3,0,0.5c0,0.2,0,0.3,0,0.5h-6.1c0,0.4,0.1,0.8,0.3,1.1
			c0.1,0.3,0.3,0.5,0.6,0.7c0.2,0.2,0.5,0.3,0.8,0.4c0.3,0.1,0.6,0.1,0.9,0.1c0.3,0,0.5,0,0.8-0.1c0.3-0.1,0.5-0.1,0.7-0.3
			c0.2-0.1,0.5-0.3,0.7-0.5l1.2,1.1c-0.3,0.3-0.6,0.6-1,0.9c-0.4,0.2-0.8,0.4-1.2,0.5S30.1,162.8,29.7,162.8z M27.3,157h3.9
			c0-0.3,0-0.6-0.1-0.8c-0.1-0.2-0.2-0.4-0.4-0.6s-0.4-0.3-0.6-0.4c-0.2-0.1-0.5-0.1-0.8-0.1c-0.3,0-0.5,0-0.7,0.1s-0.4,0.2-0.6,0.3
			c-0.2,0.2-0.3,0.4-0.5,0.6C27.4,156.4,27.3,156.7,27.3,157z"/>
		<path class="st1" d="M38.2,162.8c-1,0-1.8-0.2-2.4-0.7c-0.6-0.5-0.8-1.1-0.8-1.8c0-0.5,0.1-0.9,0.3-1.3c0.2-0.4,0.5-0.8,1-1.1
			s1-0.5,1.6-0.7s1.4-0.2,2.2-0.2c0.1,0,0.2,0,0.4,0s0.3,0,0.5,0c0.2,0,0.4,0,0.5,0l0.1,1.6c-0.1,0-0.3,0-0.5,0c-0.2,0-0.4,0-0.6,0
			c-0.2,0-0.4,0-0.5,0c-0.5,0-1,0-1.3,0.1s-0.7,0.2-0.9,0.3c-0.2,0.1-0.4,0.3-0.5,0.5c-0.1,0.2-0.2,0.4-0.2,0.6c0,0.2,0,0.4,0.1,0.5
			c0.1,0.1,0.2,0.3,0.3,0.3s0.3,0.1,0.4,0.2s0.4,0.1,0.6,0.1c0.4,0,0.7-0.1,1-0.2c0.3-0.1,0.5-0.3,0.8-0.6s0.4-0.6,0.5-1
			c0.1-0.4,0.1-0.9,0.1-1.4c0-0.7-0.1-1.3-0.2-1.7c-0.2-0.4-0.4-0.7-0.7-0.8c-0.3-0.2-0.7-0.2-1.2-0.2c-0.4,0-0.8,0.1-1.2,0.2
			s-0.7,0.4-1.1,0.8l-1.2-1.4c0.5-0.5,1.1-0.8,1.7-1.1c0.6-0.2,1.3-0.3,1.9-0.3c0.6,0,1.1,0.1,1.6,0.2c0.5,0.1,0.9,0.3,1.3,0.7
			c0.4,0.3,0.7,0.7,0.9,1.2s0.3,1.2,0.3,2v5.2h-2.3v-1.1c-0.2,0.2-0.4,0.4-0.6,0.6s-0.4,0.3-0.6,0.4c-0.2,0.1-0.5,0.2-0.7,0.2
			C38.7,162.8,38.4,162.8,38.2,162.8z"/>
	</g>
</g>
<g>
	<g>
		<path class="st1" d="M166.3,17.4c-0.3-0.1-0.6-0.2-0.8-0.4c-0.3-0.2-0.5-0.4-0.7-0.7l-0.4,1.1h-1.7V4.2h2.2h0.2v0.2
			c-0.1,0.1-0.1,0.2-0.1,0.3c0,0.1,0,0.3,0,0.5v4.3c0.1-0.2,0.3-0.4,0.5-0.5c0.2-0.2,0.4-0.3,0.6-0.4c0.2-0.1,0.4-0.2,0.7-0.2
			c0.2-0.1,0.5-0.1,0.7-0.1c0.6,0,1.1,0.1,1.5,0.3c0.5,0.2,0.8,0.5,1.2,0.9c0.3,0.4,0.6,0.9,0.8,1.4c0.2,0.6,0.3,1.2,0.3,2
			c0,0.8-0.1,1.5-0.3,2.2s-0.5,1.1-0.8,1.5c-0.4,0.4-0.8,0.7-1.2,0.9c-0.5,0.2-0.9,0.3-1.5,0.3C167,17.5,166.6,17.5,166.3,17.4z
			 M167.6,15.6c0.3-0.1,0.5-0.3,0.7-0.5c0.2-0.2,0.3-0.5,0.4-0.9c0.1-0.4,0.2-0.8,0.2-1.4c0-0.5,0-0.9-0.1-1.3
			c-0.1-0.4-0.2-0.7-0.4-1c-0.2-0.3-0.4-0.5-0.6-0.6c-0.2-0.1-0.5-0.2-0.8-0.2c-0.4,0-0.7,0.1-1,0.4c-0.3,0.2-0.5,0.6-0.6,1
			c-0.1,0.4-0.2,1-0.2,1.6c0,0.5,0,0.9,0.1,1.3s0.2,0.7,0.3,1c0.2,0.3,0.3,0.5,0.6,0.6c0.2,0.1,0.5,0.2,0.8,0.2
			C167.1,15.8,167.4,15.7,167.6,15.6z"/>
		<path class="st1" d="M175.9,17.5c-0.4,0-0.7,0-1.1-0.1s-0.6-0.2-0.9-0.4c-0.3-0.2-0.5-0.5-0.7-0.8c-0.2-0.3-0.3-0.7-0.4-1.1
			s-0.2-0.9-0.2-1.5V8.3h2.3v5.3c0,0.4,0,0.7,0.1,1c0.1,0.3,0.2,0.5,0.3,0.7c0.1,0.2,0.3,0.3,0.5,0.4c0.2,0.1,0.4,0.1,0.6,0.1
			c0.3,0,0.5,0,0.8-0.1s0.4-0.2,0.6-0.4c0.2-0.2,0.3-0.4,0.4-0.7s0.1-0.6,0.1-1V8.3h2.2v7.6c0,0.3,0,0.5,0,0.8
			c0,0.2,0.1,0.5,0.2,0.7h-2c-0.1-0.1-0.1-0.3-0.1-0.4c0-0.1,0-0.3,0-0.4c0-0.1,0-0.3,0-0.4c-0.1,0.2-0.3,0.4-0.5,0.6
			c-0.2,0.2-0.4,0.3-0.6,0.4s-0.5,0.2-0.7,0.3C176.4,17.5,176.2,17.5,175.9,17.5z"/>
		<path class="st1" d="M183.3,17.4v-1.8h2.3v-5.5h-2.1V8.3h4.4v7.3h2.1v1.8H183.3z M186.6,6.4c-0.4,0-0.7-0.1-1-0.4s-0.4-0.6-0.4-1
			c0-0.4,0.1-0.7,0.4-1c0.3-0.3,0.6-0.4,1-0.4c0.4,0,0.7,0.1,1,0.4s0.4,0.6,0.4,1s-0.1,0.7-0.4,1S187,6.4,186.6,6.4z"/>
		<path class="st1" d="M192.8,17.4v-1.8h2.6V5.9h-2.5V4.2h4.8v11.5h2.6v1.8H192.8z"/>
		<path class="st1" d="M204.5,17.2c-0.5-0.2-0.9-0.5-1.2-0.9c-0.4-0.4-0.6-0.9-0.8-1.5c-0.2-0.6-0.3-1.3-0.3-2.1
			c0-0.8,0.1-1.5,0.3-2c0.2-0.6,0.5-1.1,0.8-1.5c0.4-0.4,0.8-0.7,1.2-0.9c0.5-0.2,1-0.3,1.5-0.3c0.3,0,0.6,0,0.9,0.1
			s0.5,0.2,0.8,0.3c0.2,0.2,0.4,0.4,0.6,0.6v-5h2.2h0.2v0.2c-0.1,0.1-0.1,0.2-0.1,0.3c0,0.1,0,0.2,0,0.5l0,11.1c0,0.2,0,0.4,0,0.6
			s0.1,0.4,0.2,0.6h-2.2c-0.1-0.2-0.1-0.3-0.1-0.4s0-0.2,0-0.3s0-0.2,0-0.4c-0.2,0.3-0.4,0.5-0.6,0.7c-0.2,0.2-0.5,0.3-0.8,0.4
			s-0.6,0.1-0.9,0.1C205.5,17.5,205,17.4,204.5,17.2z M207.2,15.5c0.2-0.1,0.4-0.3,0.6-0.5c0.2-0.2,0.3-0.5,0.3-0.9
			c0.1-0.4,0.1-0.8,0.1-1.3c0-0.7-0.1-1.2-0.2-1.6c-0.1-0.4-0.3-0.8-0.6-1c-0.3-0.2-0.6-0.3-1.1-0.3c-0.3,0-0.6,0.1-0.8,0.2
			c-0.3,0.1-0.5,0.3-0.6,0.6c-0.2,0.3-0.3,0.6-0.4,0.9c-0.1,0.4-0.1,0.8-0.1,1.2c0,0.6,0.1,1.2,0.3,1.6s0.4,0.8,0.7,1
			c0.3,0.2,0.6,0.4,1,0.4C206.7,15.7,207,15.7,207.2,15.5z"/>
	</g>
</g>
<g>
	<g>
		<path class="st1" d="M322.2,162.6v-1.8h2.6v-9.7h-2.5v-1.8h4.8v11.5h2.6v1.8H322.2z"/>
		<path class="st1" d="M334.9,162.8c-1,0-1.8-0.2-2.4-0.7c-0.6-0.5-0.8-1.1-0.8-1.8c0-0.5,0.1-0.9,0.3-1.3c0.2-0.4,0.5-0.8,1-1.1
			s1-0.5,1.6-0.7c0.6-0.2,1.4-0.2,2.2-0.2c0.1,0,0.2,0,0.4,0c0.2,0,0.3,0,0.5,0s0.4,0,0.5,0l0.1,1.6c-0.1,0-0.3,0-0.5,0
			c-0.2,0-0.4,0-0.6,0c-0.2,0-0.4,0-0.5,0c-0.5,0-1,0-1.3,0.1s-0.7,0.2-0.9,0.3s-0.4,0.3-0.5,0.5c-0.1,0.2-0.2,0.4-0.2,0.6
			c0,0.2,0,0.4,0.1,0.5c0.1,0.1,0.2,0.3,0.3,0.3s0.3,0.1,0.4,0.2c0.2,0,0.4,0.1,0.6,0.1c0.4,0,0.7-0.1,1-0.2
			c0.3-0.1,0.5-0.3,0.8-0.6c0.2-0.3,0.4-0.6,0.5-1s0.1-0.9,0.1-1.4c0-0.7-0.1-1.3-0.2-1.7c-0.2-0.4-0.4-0.7-0.7-0.8
			c-0.3-0.2-0.7-0.2-1.2-0.2c-0.4,0-0.8,0.1-1.2,0.2s-0.7,0.4-1.1,0.8l-1.2-1.4c0.5-0.5,1.1-0.8,1.7-1.1c0.6-0.2,1.3-0.3,1.9-0.3
			c0.6,0,1.1,0.1,1.6,0.2c0.5,0.1,0.9,0.3,1.3,0.7s0.7,0.7,0.9,1.2s0.3,1.2,0.3,2v5.2h-2.3v-1.1c-0.2,0.2-0.4,0.4-0.6,0.6
			s-0.4,0.3-0.6,0.4s-0.5,0.2-0.7,0.2C335.4,162.8,335.2,162.8,334.9,162.8z"/>
		<path class="st1" d="M345.1,162.8c-0.4,0-0.7,0-1.1-0.1c-0.3-0.1-0.6-0.2-0.9-0.4c-0.3-0.2-0.5-0.5-0.7-0.8
			c-0.2-0.3-0.3-0.7-0.4-1.1c-0.1-0.4-0.2-0.9-0.2-1.5v-5.3h2.3v5.3c0,0.4,0,0.7,0.1,1c0.1,0.3,0.2,0.5,0.3,0.7
			c0.1,0.2,0.3,0.3,0.5,0.4c0.2,0.1,0.4,0.1,0.6,0.1c0.3,0,0.5,0,0.8-0.1s0.4-0.2,0.6-0.4s0.3-0.4,0.4-0.7s0.1-0.6,0.1-1v-5.1h2.2
			v7.6c0,0.3,0,0.5,0,0.8c0,0.2,0.1,0.5,0.2,0.7h-2c-0.1-0.1-0.1-0.3-0.1-0.4c0-0.1,0-0.3,0-0.4s0-0.3,0-0.4
			c-0.1,0.2-0.3,0.4-0.5,0.6s-0.4,0.3-0.6,0.4s-0.5,0.2-0.7,0.3S345.3,162.8,345.1,162.8z"/>
		<path class="st1" d="M351.9,162.6v-9.1h2.2v1.3c0.2-0.3,0.5-0.6,0.7-0.8c0.3-0.2,0.6-0.4,0.9-0.5c0.3-0.1,0.7-0.2,1-0.2
			c0.5,0,1,0.1,1.5,0.4c0.5,0.3,0.8,0.7,1.1,1.2c0.3,0.6,0.4,1.3,0.4,2.2v5.5h-2.2v-5.4c0-0.5-0.1-0.9-0.2-1.2
			c-0.1-0.3-0.3-0.5-0.5-0.7c-0.2-0.1-0.4-0.2-0.7-0.2c-0.3,0-0.5,0-0.7,0.1s-0.5,0.2-0.7,0.4c-0.2,0.2-0.4,0.4-0.5,0.7
			s-0.2,0.6-0.2,0.9v5.4H351.9z"/>
		<path class="st1" d="M364.4,162.4c-0.6-0.2-1.1-0.6-1.5-1s-0.8-0.9-1-1.5c-0.2-0.6-0.4-1.2-0.4-1.9c0-0.7,0.1-1.3,0.4-1.9
			c0.2-0.6,0.6-1.1,1-1.5s0.9-0.8,1.5-1c0.6-0.3,1.2-0.4,1.9-0.4c0.8,0,1.6,0.2,2.2,0.5c0.6,0.3,1.1,0.8,1.5,1.3l-1.3,1.4l-0.1,0.1
			l-0.2-0.1c0-0.1,0-0.2,0-0.3c0-0.1-0.1-0.2-0.3-0.4c-0.3-0.3-0.5-0.4-0.8-0.5c-0.3-0.1-0.7-0.1-1.1-0.1c-0.3,0-0.6,0.1-0.9,0.2
			c-0.3,0.1-0.6,0.3-0.8,0.6c-0.2,0.2-0.4,0.6-0.6,0.9c-0.1,0.4-0.2,0.8-0.2,1.3c0,0.4,0.1,0.8,0.2,1.2c0.1,0.3,0.3,0.6,0.6,0.9
			c0.2,0.2,0.5,0.4,0.8,0.6c0.3,0.1,0.6,0.2,1,0.2c0.3,0,0.5,0,0.8-0.1c0.3-0.1,0.5-0.2,0.8-0.4s0.5-0.4,0.7-0.7l1.3,1.4
			c-0.5,0.5-1.1,0.9-1.7,1.2c-0.7,0.2-1.3,0.4-2,0.4C365.6,162.8,365,162.7,364.4,162.4z"/>
		<path class="st1" d="M371.8,149.4h2.2h0.2v0.2c-0.1,0.1-0.1,0.2-0.1,0.3c0,0.1,0,0.3,0,0.5v4.4c0.2-0.3,0.5-0.6,0.8-0.8
			c0.3-0.2,0.6-0.4,0.9-0.5c0.3-0.1,0.7-0.2,1-0.2c0.6,0,1.1,0.1,1.6,0.4s0.8,0.7,1,1.2s0.4,1.3,0.4,2.2v5.5h-2.3v-5.4
			c0-0.5-0.1-1-0.2-1.3c-0.1-0.3-0.3-0.5-0.4-0.7c-0.2-0.1-0.4-0.2-0.7-0.2c-0.2,0-0.4,0-0.7,0.1c-0.2,0.1-0.4,0.2-0.6,0.3
			c-0.2,0.1-0.3,0.3-0.5,0.5c-0.1,0.2-0.2,0.4-0.3,0.7s-0.1,0.5-0.1,0.8v5.2h-2.3V149.4z"/>
	</g>
</g>
<g>
	<g>
		<path class="st3" d="M108-633.9c-0.6-0.2-1.1-0.6-1.6-1.1c-0.5-0.5-0.8-1.2-1.1-1.9c-0.3-0.8-0.4-1.7-0.4-2.7c0-1,0.1-1.9,0.4-2.6
			c0.3-0.8,0.6-1.4,1.1-1.9c0.5-0.5,1-0.9,1.6-1.1c0.6-0.2,1.2-0.4,1.9-0.4c0.4,0,0.8,0.1,1.1,0.2c0.4,0.1,0.7,0.3,1,0.4
			s0.5,0.5,0.7,0.8v-6.5h2.8h0.3v0.2c-0.1,0.1-0.2,0.2-0.2,0.3c0,0.1,0,0.3,0,0.6l0,14.3c0,0.3,0,0.5,0.1,0.8c0,0.3,0.1,0.5,0.2,0.8
			h-2.8c-0.1-0.2-0.1-0.4-0.2-0.5c0-0.1-0.1-0.3-0.1-0.4c0-0.1,0-0.3,0-0.5c-0.2,0.4-0.5,0.7-0.8,0.9c-0.3,0.2-0.6,0.4-1,0.5
			c-0.4,0.1-0.7,0.2-1.2,0.2C109.2-633.5,108.6-633.7,108-633.9z M111.4-636.1c0.3-0.2,0.5-0.4,0.7-0.7c0.2-0.3,0.3-0.7,0.4-1.2
			c0.1-0.5,0.1-1,0.1-1.7c0-0.8-0.1-1.6-0.3-2.1c-0.2-0.6-0.4-1-0.8-1.3c-0.4-0.3-0.8-0.4-1.4-0.4c-0.4,0-0.8,0.1-1.1,0.3
			c-0.3,0.2-0.6,0.4-0.8,0.7c-0.2,0.3-0.4,0.7-0.5,1.2c-0.1,0.5-0.2,1-0.2,1.5c0,0.8,0.1,1.5,0.3,2.1c0.2,0.6,0.5,1,0.9,1.3
			c0.4,0.3,0.8,0.5,1.3,0.5C110.8-635.9,111.1-635.9,111.4-636.1z"/>
		<path class="st3" d="M123.8-633.5c-0.9,0-1.6-0.1-2.4-0.4c-0.7-0.3-1.4-0.7-1.9-1.2c-0.5-0.5-1-1.1-1.2-1.9
			c-0.3-0.7-0.4-1.6-0.4-2.5c0-1,0.1-1.8,0.4-2.6c0.3-0.8,0.7-1.4,1.2-1.9c0.5-0.5,1.1-0.9,1.8-1.2c0.7-0.3,1.4-0.4,2.2-0.4
			c0.7,0,1.4,0.1,2,0.4s1.2,0.6,1.6,1.1c0.5,0.5,0.8,1.1,1.1,1.8c0.3,0.7,0.4,1.5,0.4,2.5c0,0.2,0,0.4,0,0.6c0,0.2,0,0.4,0,0.6h-7.9
			c0,0.5,0.1,1,0.3,1.4c0.2,0.4,0.4,0.7,0.7,0.9c0.3,0.2,0.6,0.4,1,0.5s0.8,0.2,1.2,0.2c0.4,0,0.7,0,1-0.1c0.3-0.1,0.6-0.2,0.9-0.4
			c0.3-0.2,0.6-0.4,0.9-0.7l1.5,1.4c-0.4,0.4-0.8,0.8-1.3,1.1c-0.5,0.3-1,0.5-1.5,0.6S124.4-633.5,123.8-633.5z M120.7-641h5.1
			c0-0.4-0.1-0.7-0.2-1c-0.1-0.3-0.3-0.6-0.5-0.8s-0.5-0.4-0.8-0.5c-0.3-0.1-0.6-0.2-1-0.2c-0.3,0-0.6,0-0.9,0.1
			c-0.3,0.1-0.6,0.2-0.8,0.4c-0.2,0.2-0.4,0.5-0.6,0.8C120.9-641.8,120.8-641.4,120.7-641z"/>
		<path class="st3" d="M133.2-643.2h-2.6v-2.2h2.6v-0.7c0-1.1,0.2-2,0.7-2.7c0.5-0.7,1.1-1.2,1.8-1.6s1.6-0.5,2.4-0.5
			c0.8,0,1.5,0.1,2.2,0.4s1.3,0.7,1.8,1.2l-1.1,2l-0.1,0.2l-0.2-0.1c-0.1-0.1-0.1-0.2-0.2-0.4s-0.2-0.3-0.4-0.5
			c-0.3-0.2-0.6-0.4-0.9-0.4s-0.6-0.1-1-0.1c-0.4,0-0.8,0.1-1.2,0.3c-0.3,0.2-0.6,0.5-0.8,0.8c-0.2,0.4-0.3,0.8-0.3,1.4v0.7h3.6v2.2
			h-3.6v9.4h-2.9V-643.2z"/>
		<path class="st3" d="M144.6-633.7v-2.3h2.9v-7.1h-2.8v-2.3h5.7v9.4h2.7v2.3H144.6z M148.9-647.9c-0.5,0-0.9-0.2-1.3-0.5
			s-0.5-0.8-0.5-1.2c0-0.5,0.2-0.9,0.5-1.3c0.3-0.3,0.8-0.5,1.3-0.5c0.5,0,0.9,0.2,1.3,0.5c0.4,0.3,0.5,0.8,0.5,1.2
			c0,0.5-0.2,0.9-0.5,1.2C149.8-648.1,149.3-647.9,148.9-647.9z"/>
		<path class="st3" d="M156.7-633.7v-11.7h2.9v1.7c0.3-0.4,0.6-0.7,0.9-1c0.3-0.3,0.7-0.5,1.1-0.7c0.4-0.2,0.9-0.2,1.3-0.2
			c0.7,0,1.3,0.2,1.9,0.5c0.6,0.3,1,0.8,1.4,1.6s0.5,1.7,0.5,2.8v7H164v-7c0-0.6-0.1-1.2-0.2-1.6c-0.1-0.4-0.3-0.7-0.6-0.9
			s-0.6-0.3-0.9-0.3c-0.3,0-0.6,0.1-1,0.2c-0.3,0.1-0.6,0.3-0.9,0.6c-0.3,0.2-0.5,0.5-0.6,0.9c-0.2,0.3-0.2,0.7-0.2,1.2v6.9H156.7z"
			/>
		<path class="st3" d="M175-633.5c-0.9,0-1.6-0.1-2.4-0.4c-0.7-0.3-1.4-0.7-1.9-1.2c-0.5-0.5-1-1.1-1.2-1.9
			c-0.3-0.7-0.4-1.6-0.4-2.5c0-1,0.1-1.8,0.4-2.6c0.3-0.8,0.7-1.4,1.2-1.9c0.5-0.5,1.1-0.9,1.8-1.2c0.7-0.3,1.4-0.4,2.2-0.4
			c0.7,0,1.4,0.1,2,0.4s1.2,0.6,1.6,1.1c0.5,0.5,0.8,1.1,1.1,1.8c0.3,0.7,0.4,1.5,0.4,2.5c0,0.2,0,0.4,0,0.6c0,0.2,0,0.4,0,0.6h-7.9
			c0,0.5,0.1,1,0.3,1.4c0.2,0.4,0.4,0.7,0.7,0.9c0.3,0.2,0.6,0.4,1,0.5s0.8,0.2,1.2,0.2c0.4,0,0.7,0,1-0.1c0.3-0.1,0.6-0.2,0.9-0.4
			c0.3-0.2,0.6-0.4,0.9-0.7l1.5,1.4c-0.4,0.4-0.8,0.8-1.3,1.1c-0.5,0.3-1,0.5-1.5,0.6S175.6-633.5,175-633.5z M171.9-641h5.1
			c0-0.4-0.1-0.7-0.2-1c-0.1-0.3-0.3-0.6-0.5-0.8s-0.5-0.4-0.8-0.5c-0.3-0.1-0.6-0.2-1-0.2c-0.3,0-0.6,0-0.9,0.1
			c-0.3,0.1-0.6,0.2-0.8,0.4c-0.2,0.2-0.4,0.5-0.6,0.8C172-641.8,171.9-641.4,171.9-641z"/>
	</g>
</g>
<g>
	<g>
		<path class="st3" d="M224.5-633.9c-0.6-0.2-1.1-0.6-1.6-1.1c-0.5-0.5-0.8-1.2-1.1-1.9c-0.3-0.8-0.4-1.7-0.4-2.7
			c0-1,0.1-1.9,0.4-2.6c0.3-0.8,0.6-1.4,1.1-1.9c0.5-0.5,1-0.9,1.6-1.1c0.6-0.2,1.2-0.4,1.9-0.4c0.4,0,0.8,0.1,1.1,0.2
			c0.4,0.1,0.7,0.3,1,0.4c0.3,0.2,0.5,0.5,0.7,0.8v-6.5h2.8h0.3v0.2c-0.1,0.1-0.2,0.2-0.2,0.3c0,0.1,0,0.3,0,0.6l0,14.3
			c0,0.3,0,0.5,0.1,0.8c0,0.3,0.1,0.5,0.2,0.8h-2.8c-0.1-0.2-0.1-0.4-0.2-0.5c0-0.1-0.1-0.3-0.1-0.4c0-0.1,0-0.3,0-0.5
			c-0.2,0.4-0.5,0.7-0.8,0.9s-0.6,0.4-1,0.5c-0.4,0.1-0.7,0.2-1.2,0.2C225.7-633.5,225.1-633.7,224.5-633.9z M227.9-636.1
			c0.3-0.2,0.5-0.4,0.7-0.7s0.3-0.7,0.4-1.2s0.1-1,0.1-1.7c0-0.8-0.1-1.6-0.3-2.1c-0.2-0.6-0.4-1-0.8-1.3c-0.4-0.3-0.8-0.4-1.4-0.4
			c-0.4,0-0.8,0.1-1.1,0.3c-0.3,0.2-0.6,0.4-0.8,0.7c-0.2,0.3-0.4,0.7-0.5,1.2c-0.1,0.5-0.2,1-0.2,1.5c0,0.8,0.1,1.5,0.3,2.1
			c0.2,0.6,0.5,1,0.9,1.3c0.4,0.3,0.8,0.5,1.3,0.5C227.2-635.9,227.6-635.9,227.9-636.1z"/>
		<path class="st3" d="M240.3-633.5c-0.9,0-1.6-0.1-2.4-0.4c-0.7-0.3-1.4-0.7-1.9-1.2c-0.5-0.5-1-1.1-1.2-1.9
			c-0.3-0.7-0.4-1.6-0.4-2.5c0-1,0.1-1.8,0.4-2.6c0.3-0.8,0.7-1.4,1.2-1.9c0.5-0.5,1.1-0.9,1.8-1.2s1.4-0.4,2.2-0.4
			c0.7,0,1.4,0.1,2,0.4c0.6,0.2,1.2,0.6,1.6,1.1s0.8,1.1,1.1,1.8c0.3,0.7,0.4,1.5,0.4,2.5c0,0.2,0,0.4,0,0.6s0,0.4,0,0.6h-7.9
			c0,0.5,0.1,1,0.3,1.4s0.4,0.7,0.7,0.9c0.3,0.2,0.6,0.4,1,0.5s0.8,0.2,1.2,0.2c0.4,0,0.7,0,1-0.1c0.3-0.1,0.6-0.2,0.9-0.4
			c0.3-0.2,0.6-0.4,0.9-0.7l1.5,1.4c-0.4,0.4-0.8,0.8-1.3,1.1c-0.5,0.3-1,0.5-1.5,0.6S240.9-633.5,240.3-633.5z M237.2-641h5.1
			c0-0.4-0.1-0.7-0.2-1c-0.1-0.3-0.3-0.6-0.5-0.8c-0.2-0.2-0.5-0.4-0.8-0.5c-0.3-0.1-0.6-0.2-1-0.2c-0.3,0-0.6,0-0.9,0.1
			c-0.3,0.1-0.6,0.2-0.8,0.4c-0.2,0.2-0.4,0.5-0.6,0.8C237.3-641.8,237.2-641.4,237.2-641z"/>
		<path class="st3" d="M251.4-633.7l-4.5-11.7h3l3,8.4h-0.4l1.6-3.8c0.3-0.8,0.6-1.6,0.8-2.4c0.2-0.8,0.3-1.5,0.4-2.2h2.7
			c-0.1,0.7-0.3,1.5-0.5,2.3s-0.6,1.7-1,2.5l-2.9,6.8H251.4z"/>
		<path class="st3" d="M265.9-633.5c-0.9,0-1.6-0.1-2.4-0.4c-0.7-0.3-1.4-0.7-1.9-1.2c-0.5-0.5-1-1.1-1.2-1.9
			c-0.3-0.7-0.4-1.6-0.4-2.5c0-1,0.1-1.8,0.4-2.6s0.7-1.4,1.2-1.9c0.5-0.5,1.1-0.9,1.8-1.2c0.7-0.3,1.4-0.4,2.2-0.4
			c0.7,0,1.4,0.1,2,0.4c0.6,0.2,1.2,0.6,1.6,1.1c0.5,0.5,0.8,1.1,1.1,1.8c0.3,0.7,0.4,1.5,0.4,2.5c0,0.2,0,0.4,0,0.6
			c0,0.2,0,0.4,0,0.6h-7.9c0,0.5,0.1,1,0.3,1.4c0.2,0.4,0.4,0.7,0.7,0.9c0.3,0.2,0.6,0.4,1,0.5s0.8,0.2,1.2,0.2c0.4,0,0.7,0,1-0.1
			c0.3-0.1,0.6-0.2,0.9-0.4s0.6-0.4,0.9-0.7l1.5,1.4c-0.4,0.4-0.8,0.8-1.3,1.1s-1,0.5-1.5,0.6S266.4-633.5,265.9-633.5z M262.8-641
			h5.1c0-0.4-0.1-0.7-0.2-1c-0.1-0.3-0.3-0.6-0.5-0.8c-0.2-0.2-0.5-0.4-0.8-0.5s-0.6-0.2-1-0.2c-0.3,0-0.6,0-0.9,0.1
			c-0.3,0.1-0.6,0.2-0.8,0.4c-0.2,0.2-0.4,0.5-0.6,0.8C262.9-641.8,262.8-641.4,262.8-641z"/>
		<path class="st3" d="M273.3-633.7v-2.3h3.3v-12.5h-3.2v-2.3h6.1v14.7h3.3v2.3H273.3z"/>
		<path class="st3" d="M290.9-633.5c-1.1,0-2-0.3-2.9-0.8c-0.9-0.5-1.5-1.2-2-2.1c-0.5-0.9-0.7-2-0.7-3.2c0-1.1,0.2-2.2,0.7-3.1
			c0.5-0.9,1.2-1.6,2-2.2c0.9-0.5,1.8-0.8,2.9-0.8c1.1,0,2,0.3,2.9,0.8c0.9,0.5,1.5,1.3,2,2.2s0.8,1.9,0.8,3.1
			c0,1.2-0.3,2.3-0.8,3.2c-0.5,0.9-1.2,1.6-2,2.1C292.9-633.8,291.9-633.5,290.9-633.5z M290.9-635.8c0.6,0,1-0.2,1.5-0.5
			s0.7-0.8,1-1.3c0.2-0.6,0.4-1.2,0.4-2c0-0.8-0.1-1.4-0.4-2s-0.6-1-1-1.3s-0.9-0.5-1.5-0.5c-0.5,0-1,0.2-1.4,0.5s-0.8,0.7-1,1.3
			s-0.4,1.2-0.4,2c0,0.7,0.1,1.4,0.4,2c0.2,0.6,0.6,1,1,1.3S290.3-635.8,290.9-635.8z"/>
		<path class="st3" d="M298.5-629.5l0-16h2.9v1.7c0.3-0.4,0.6-0.8,0.9-1.1c0.3-0.3,0.7-0.5,1.1-0.6c0.4-0.1,0.9-0.2,1.3-0.2
			c0.6,0,1.3,0.1,1.8,0.4c0.6,0.3,1.1,0.6,1.5,1.2c0.4,0.5,0.8,1.1,1,1.9c0.2,0.8,0.4,1.6,0.4,2.7s-0.1,1.9-0.4,2.7
			s-0.6,1.4-1.1,1.9c-0.5,0.5-1,0.9-1.5,1.1c-0.6,0.2-1.2,0.4-1.8,0.4c-0.4,0-0.8-0.1-1.2-0.2c-0.4-0.1-0.8-0.3-1.1-0.4
			c-0.3-0.2-0.6-0.4-0.8-0.7v5.4H298.5z M303.9-635.8c0.4,0,0.7-0.1,1-0.2c0.3-0.1,0.6-0.3,0.9-0.6c0.2-0.3,0.4-0.7,0.6-1.2
			c0.1-0.5,0.2-1.1,0.2-1.9c0-0.8-0.1-1.4-0.3-1.9c-0.2-0.5-0.5-1-0.9-1.3s-0.8-0.4-1.4-0.5c-0.4,0-0.8,0-1.1,0.2
			c-0.3,0.1-0.6,0.4-0.8,0.7c-0.2,0.3-0.4,0.7-0.5,1.2c-0.1,0.5-0.2,1.1-0.2,1.8c0,0.5,0.1,0.9,0.1,1.3c0.1,0.4,0.2,0.7,0.3,1
			s0.3,0.5,0.5,0.7c0.2,0.2,0.4,0.3,0.7,0.4C303.2-635.8,303.5-635.8,303.9-635.8z"/>
	</g>
</g>
<g>
	<g>
		<path class="st3" d="M481.2-633.9c-0.6-0.2-1.1-0.6-1.6-1.1c-0.5-0.5-0.8-1.2-1.1-1.9c-0.3-0.8-0.4-1.7-0.4-2.7
			c0-1,0.1-1.9,0.4-2.6c0.3-0.8,0.6-1.4,1.1-1.9c0.5-0.5,1-0.9,1.6-1.1c0.6-0.2,1.2-0.4,1.9-0.4c0.4,0,0.8,0.1,1.1,0.2
			c0.4,0.1,0.7,0.3,1,0.4c0.3,0.2,0.5,0.5,0.7,0.8v-6.5h2.8h0.3v0.2c-0.1,0.1-0.2,0.2-0.2,0.3c0,0.1,0,0.3,0,0.6l0,14.3
			c0,0.3,0,0.5,0.1,0.8c0,0.3,0.1,0.5,0.2,0.8h-2.8c-0.1-0.2-0.1-0.4-0.2-0.5c0-0.1-0.1-0.3-0.1-0.4c0-0.1,0-0.3,0-0.5
			c-0.2,0.4-0.5,0.7-0.8,0.9s-0.6,0.4-1,0.5c-0.4,0.1-0.7,0.2-1.2,0.2C482.4-633.5,481.8-633.7,481.2-633.9z M484.6-636.1
			c0.3-0.2,0.5-0.4,0.7-0.7s0.3-0.7,0.4-1.2s0.1-1,0.1-1.7c0-0.8-0.1-1.6-0.3-2.1c-0.2-0.6-0.4-1-0.8-1.3c-0.4-0.3-0.8-0.4-1.4-0.4
			c-0.4,0-0.8,0.1-1.1,0.3c-0.3,0.2-0.6,0.4-0.8,0.7c-0.2,0.3-0.4,0.7-0.5,1.2c-0.1,0.5-0.2,1-0.2,1.5c0,0.8,0.1,1.5,0.3,2.1
			c0.2,0.6,0.5,1,0.9,1.3c0.4,0.3,0.8,0.5,1.3,0.5C483.9-635.9,484.3-635.9,484.6-636.1z"/>
		<path class="st3" d="M497-633.5c-0.9,0-1.6-0.1-2.4-0.4c-0.7-0.3-1.4-0.7-1.9-1.2c-0.5-0.5-1-1.1-1.2-1.9
			c-0.3-0.7-0.4-1.6-0.4-2.5c0-1,0.1-1.8,0.4-2.6c0.3-0.8,0.7-1.4,1.2-1.9c0.5-0.5,1.1-0.9,1.8-1.2s1.4-0.4,2.2-0.4
			c0.7,0,1.4,0.1,2,0.4c0.6,0.2,1.2,0.6,1.6,1.1s0.8,1.1,1.1,1.8c0.3,0.7,0.4,1.5,0.4,2.5c0,0.2,0,0.4,0,0.6s0,0.4,0,0.6h-7.9
			c0,0.5,0.1,1,0.3,1.4s0.4,0.7,0.7,0.9c0.3,0.2,0.6,0.4,1,0.5s0.8,0.2,1.2,0.2c0.4,0,0.7,0,1-0.1c0.3-0.1,0.6-0.2,0.9-0.4
			c0.3-0.2,0.6-0.4,0.9-0.7l1.5,1.4c-0.4,0.4-0.8,0.8-1.3,1.1c-0.5,0.3-1,0.5-1.5,0.6S497.6-633.5,497-633.5z M493.9-641h5.1
			c0-0.4-0.1-0.7-0.2-1c-0.1-0.3-0.3-0.6-0.5-0.8c-0.2-0.2-0.5-0.4-0.8-0.5c-0.3-0.1-0.6-0.2-1-0.2c-0.3,0-0.6,0-0.9,0.1
			c-0.3,0.1-0.6,0.2-0.8,0.4c-0.2,0.2-0.4,0.5-0.6,0.8C494-641.8,493.9-641.4,493.9-641z"/>
		<path class="st3" d="M508.1-633.7l-4.5-11.7h3l3,8.4h-0.4l1.6-3.8c0.3-0.8,0.6-1.6,0.8-2.4c0.2-0.8,0.3-1.5,0.4-2.2h2.7
			c-0.1,0.7-0.3,1.5-0.5,2.3s-0.6,1.7-1,2.5l-2.9,6.8H508.1z"/>
		<path class="st3" d="M522.6-633.5c-0.9,0-1.6-0.1-2.4-0.4c-0.7-0.3-1.4-0.7-1.9-1.2c-0.5-0.5-1-1.1-1.2-1.9
			c-0.3-0.7-0.4-1.6-0.4-2.5c0-1,0.1-1.8,0.4-2.6s0.7-1.4,1.2-1.9c0.5-0.5,1.1-0.9,1.8-1.2c0.7-0.3,1.4-0.4,2.2-0.4
			c0.7,0,1.4,0.1,2,0.4c0.6,0.2,1.2,0.6,1.6,1.1c0.5,0.5,0.8,1.1,1.1,1.8c0.3,0.7,0.4,1.5,0.4,2.5c0,0.2,0,0.4,0,0.6
			c0,0.2,0,0.4,0,0.6h-7.9c0,0.5,0.1,1,0.3,1.4c0.2,0.4,0.4,0.7,0.7,0.9c0.3,0.2,0.6,0.4,1,0.5s0.8,0.2,1.2,0.2c0.4,0,0.7,0,1-0.1
			c0.3-0.1,0.6-0.2,0.9-0.4s0.6-0.4,0.9-0.7l1.5,1.4c-0.4,0.4-0.8,0.8-1.3,1.1s-1,0.5-1.5,0.6S523.1-633.5,522.6-633.5z M519.5-641
			h5.1c0-0.4-0.1-0.7-0.2-1c-0.1-0.3-0.3-0.6-0.5-0.8c-0.2-0.2-0.5-0.4-0.8-0.5s-0.6-0.2-1-0.2c-0.3,0-0.6,0-0.9,0.1
			c-0.3,0.1-0.6,0.2-0.8,0.4c-0.2,0.2-0.4,0.5-0.6,0.8C519.6-641.8,519.5-641.4,519.5-641z"/>
		<path class="st3" d="M530-633.7v-2.3h3.3v-12.5h-3.2v-2.3h6.1v14.7h3.3v2.3H530z"/>
		<path class="st3" d="M547.6-633.5c-1.1,0-2-0.3-2.9-0.8c-0.9-0.5-1.5-1.2-2-2.1c-0.5-0.9-0.7-2-0.7-3.2c0-1.1,0.2-2.2,0.7-3.1
			c0.5-0.9,1.2-1.6,2-2.2c0.9-0.5,1.8-0.8,2.9-0.8c1.1,0,2,0.3,2.9,0.8c0.9,0.5,1.5,1.3,2,2.2s0.8,1.9,0.8,3.1
			c0,1.2-0.3,2.3-0.8,3.2c-0.5,0.9-1.2,1.6-2,2.1C549.6-633.8,548.6-633.5,547.6-633.5z M547.6-635.8c0.6,0,1-0.2,1.5-0.5
			s0.7-0.8,1-1.3c0.2-0.6,0.4-1.2,0.4-2c0-0.8-0.1-1.4-0.4-2s-0.6-1-1-1.3s-0.9-0.5-1.5-0.5c-0.5,0-1,0.2-1.4,0.5s-0.8,0.7-1,1.3
			s-0.4,1.2-0.4,2c0,0.7,0.1,1.4,0.4,2c0.2,0.6,0.6,1,1,1.3S547-635.8,547.6-635.8z"/>
		<path class="st3" d="M555.2-629.5l0-16h2.9v1.7c0.3-0.4,0.6-0.8,0.9-1.1c0.3-0.3,0.7-0.5,1.1-0.6c0.4-0.1,0.9-0.2,1.3-0.2
			c0.6,0,1.3,0.1,1.8,0.4c0.6,0.3,1.1,0.6,1.5,1.2c0.4,0.5,0.8,1.1,1,1.9c0.2,0.8,0.4,1.6,0.4,2.7s-0.1,1.9-0.4,2.7
			s-0.6,1.4-1.1,1.9c-0.5,0.5-1,0.9-1.5,1.1c-0.6,0.2-1.2,0.4-1.8,0.4c-0.4,0-0.8-0.1-1.2-0.2c-0.4-0.1-0.8-0.3-1.1-0.4
			c-0.3-0.2-0.6-0.4-0.8-0.7v5.4H555.2z M560.6-635.8c0.4,0,0.7-0.1,1-0.2c0.3-0.1,0.6-0.3,0.9-0.6c0.2-0.3,0.4-0.7,0.6-1.2
			c0.1-0.5,0.2-1.1,0.2-1.9c0-0.8-0.1-1.4-0.3-1.9c-0.2-0.5-0.5-1-0.9-1.3s-0.8-0.4-1.4-0.5c-0.4,0-0.8,0-1.1,0.2
			c-0.3,0.1-0.6,0.4-0.8,0.7c-0.2,0.3-0.4,0.7-0.5,1.2c-0.1,0.5-0.2,1.1-0.2,1.8c0,0.5,0.1,0.9,0.1,1.3c0.1,0.4,0.2,0.7,0.3,1
			s0.3,0.5,0.5,0.7c0.2,0.2,0.4,0.3,0.7,0.4C559.9-635.8,560.2-635.8,560.6-635.8z"/>
	</g>
</g>
<circle class="st4" cx="-601.4" cy="34.8" r="149.5"/>
<ellipse transform="matrix(0.6835 -0.73 0.73 0.6835 -264.8608 -446.1963)" class="st5" cx="-646.9" cy="82.3" rx="82.6" ry="119.7"/>
<path class="st1" d="M185.8,31.3c-4.9,0-8.9,4-8.9,8.9s4,8.9,8.9,8.9c4.9,0,8.9-4,8.9-8.9S190.7,31.3,185.8,31.3z"/>
<path class="st1" d="M185.8,263.8c-4.9,0-8.9,4-8.9,8.9s4,8.9,8.9,8.9c4.9,0,8.9-4,8.9-8.9S190.7,263.8,185.8,263.8z"/>
<circle class="st1" cx="302" cy="157.3" r="8.9"/>
<circle class="st1" cx="69.5" cy="157.3" r="8.9"/>
<g>
	<path class="st6" d="M175.4,272.7c0-0.8,0.1-1.5,0.3-2.3c-2.6-0.1-5.2-0.4-7.8-0.8c-20.6-3.1-41.7-13.9-59.4-30.6
		c-17.8-16.6-30-37-34.4-57.3c-1.1-5-1.7-9.8-1.8-14.4c-0.9,0.2-1.7,0.4-2.7,0.4c-1,0-1.9-0.1-2.8-0.4c0.1,5,0.7,10.2,1.9,15.6
		c4.7,21.4,17.4,42.8,36,60.1c18.5,17.4,40.7,28.7,62.4,32c3,0.5,6,0.7,8.9,0.9C175.5,274.9,175.4,273.8,175.4,272.7z"/>
	<path class="st6" d="M232.1,205.5c-4.7-21.4-17.4-42.8-36-60.1c-18.5-17.4-40.7-28.7-62.4-32c-22-3.3-41,2.1-53.3,15.3
		c-4.9,5.2-8.4,11.3-10.7,18.2c1.9,0,3.7,0.6,5.2,1.5c2-6,5.2-11.4,9.5-16c9.2-9.8,22.4-14.6,37.2-14.6c22.5,0,48.8,10.9,70.8,31.4
		c17.8,16.6,30,37,34.4,57.3c4.3,20,0.6,37.5-10.5,49.3c-5.6,6-12.8,10.2-21.1,12.5c0.6,1.3,0.9,2.7,0.9,4.3c0,0.4,0,0.8-0.1,1.1
		c9.5-2.5,17.8-7.3,24.2-14.2C232.7,246.5,236.9,227.2,232.1,205.5z"/>
</g>
<g>
	<path class="st7" d="M85.6,95.9c-1.6,2.7-3.2,5.4-4.6,8.2l2.1,1.1c1.4-2.7,2.9-5.4,4.5-8.1L85.6,95.9z"/>
	<path class="st7" d="M117.6,61.7c-2.5,1.8-5,3.8-7.4,5.8l1.5,1.8c2.3-2,4.8-3.9,7.3-5.7L117.6,61.7z"/>
	<path class="st7" d="M69.5,146.9c0.6,0,1.1,0.1,1.6,0.1c0.2-2.3,0.5-4.5,0.8-6.7l-2.3-0.3c-0.3,2.3-0.6,4.6-0.8,7
		C69,146.9,69.3,146.9,69.5,146.9z"/>
	<path class="st7" d="M107,73.3l-1.6-1.7c-2.3,2.1-4.5,4.4-6.6,6.7l1.7,1.6C102.6,77.7,104.8,75.4,107,73.3z"/>
	<path class="st7" d="M94.7,83.1c-2,2.4-3.9,5-5.7,7.5L91,92c1.7-2.5,3.6-5,5.5-7.4L94.7,83.1z"/>
	<path class="st7" d="M75.2,125.2l-2.2-0.6c-0.9,3-1.6,6.1-2.3,9.1l2.3,0.5C73.6,131.2,74.4,128.2,75.2,125.2z"/>
	<path class="st7" d="M291.4,106c-1.4-2.8-2.9-5.6-4.5-8.3l-2,1.2c1.6,2.6,3,5.4,4.4,8.1L291.4,106z"/>
	<path class="st7" d="M283.6,92.4c-1.7-2.6-3.6-5.2-5.5-7.6l-1.8,1.4c1.9,2.4,3.7,4.9,5.4,7.5L283.6,92.4z"/>
	<path class="st7" d="M298.9,136.1l2.3-0.4c-0.6-3.1-1.3-6.2-2.1-9.2l-2.3,0.6C297.7,130.1,298.3,133.1,298.9,136.1z"/>
	<path class="st7" d="M297.3,120.5c-1-3-2.1-5.9-3.3-8.8l-2.1,0.9c1.2,2.8,2.3,5.7,3.2,8.6L297.3,120.5z"/>
	<path class="st7" d="M263,68.8c-2.4-2.1-4.8-4-7.3-5.9l-1.4,1.9c2.5,1.8,4.9,3.8,7.2,5.8L263,68.8z"/>
	<path class="st7" d="M250.5,59.3c-2.6-1.7-5.3-3.4-8.1-4.9l-1.1,2c2.7,1.5,5.3,3.1,7.9,4.8L250.5,59.3z"/>
	<path class="st7" d="M80.5,110.8l-2.1-0.9c-1.3,2.9-2.4,5.8-3.5,8.8l2.2,0.8C78.1,116.5,79.2,113.6,80.5,110.8z"/>
	<path class="st7" d="M222.3,45.6c-3-1-6-1.8-9.1-2.6l-0.5,2.3c3,0.7,6,1.6,8.9,2.5L222.3,45.6z"/>
	<path class="st7" d="M236.9,51.5c-2.8-1.4-5.7-2.6-8.6-3.8l-0.8,2.2c2.9,1.1,5.7,2.3,8.5,3.7L236.9,51.5z"/>
	<path class="st7" d="M258.8,246.2l1.5,1.8c2.4-2,4.8-4.1,7-6.3l-1.6-1.7C263.5,242.2,261.2,244.2,258.8,246.2z"/>
	<path class="st7" d="M274.1,79.9c-2.1-2.4-4.2-4.6-6.5-6.8l-1.6,1.7c2.2,2.1,4.3,4.4,6.4,6.7L274.1,79.9z"/>
	<path class="st7" d="M270,235.6l1.7,1.6c2.1-2.3,4.2-4.7,6.1-7.1l-1.8-1.4C274.1,231,272.1,233.4,270,235.6z"/>
	<path class="st7" d="M232.8,262.3l1,2.1c2.8-1.3,5.7-2.7,8.4-4.2l-1.1-2C238.3,259.7,235.6,261.1,232.8,262.3z"/>
	<path class="st7" d="M218.3,267.7l0.7,2.2c3-0.9,6-1.9,8.9-3l-0.8-2.2C224.2,265.8,221.3,266.8,218.3,267.7z"/>
	<path class="st7" d="M279.7,223.7l1.9,1.3c1.8-2.6,3.5-5.2,5.1-7.9l-2-1.2C283.2,218.6,281.5,221.2,279.7,223.7z"/>
	<path class="st7" d="M298.2,181.7l2.3,0.5c0.7-3.1,1.2-6.2,1.6-9.3l-2.3-0.3C299.4,175.7,298.9,178.7,298.2,181.7z"/>
	<path class="st7" d="M203.3,271l0.4,2.3c3.1-0.5,6.2-1.1,9.2-1.8l-0.5-2.3C209.4,270,206.4,270.6,203.3,271z"/>
	<path class="st7" d="M287.8,210.6l2.1,1.1c1.5-2.8,2.8-5.6,4-8.5l-2.1-0.9C290.5,205,289.2,207.9,287.8,210.6z"/>
	<path class="st7" d="M294,196.5l2.2,0.8c1.1-2.9,2-6,2.8-9l-2.3-0.6C296,190.6,295,193.6,294,196.5z"/>
	<path class="st7" d="M246.3,255.1l1.2,2c2.7-1.6,5.3-3.4,7.8-5.3L254,250C251.5,251.8,248.9,253.5,246.3,255.1z"/>
	<path class="st7" d="M207.1,41.8c-3.1-0.6-6.2-1-9.3-1.3l-0.2,2.3c3.1,0.3,6.1,0.7,9.1,1.3L207.1,41.8z"/>
	<path class="st7" d="M160.3,42.6c-3.1,0.7-6.1,1.5-9.1,2.4l0.7,2.2c2.9-0.9,5.9-1.7,8.9-2.4L160.3,42.6z"/>
	<path class="st7" d="M130.9,53.4c-2.8,1.5-5.5,3.1-8.1,4.7l1.3,2c2.6-1.6,5.3-3.2,8-4.6L130.9,53.4z"/>
	<path class="st7" d="M145.2,47c-2.9,1.1-5.9,2.3-8.7,3.6l1,2.1c2.8-1.3,5.6-2.5,8.5-3.5L145.2,47z"/>
	<path class="st7" d="M175.4,40.3c-3,0.3-6,0.6-8.9,1.1l0.4,2.3c2.9-0.5,5.9-0.9,8.8-1.1C175.5,41.9,175.4,41.1,175.4,40.3z"/>
	<g>
		<path class="st7" d="M302,146.9c0.2,0,0.5,0,0.7,0c-0.1-1.7-0.3-3.3-0.5-5l-2.3,0.3c0.2,1.6,0.4,3.2,0.5,4.8
			C300.9,146.9,301.5,146.9,302,146.9z"/>
	</g>
</g>
<g>
	<g>
		<g>
			<path class="st1" d="M163,303.3v-1.8h2.6v-9.7h-2.5v-1.8h4.8v11.5h2.6v1.8H163z"/>
			<path class="st1" d="M177.1,303.5c-0.7,0-1.3-0.1-1.8-0.3s-1.1-0.5-1.5-0.9c-0.4-0.4-0.7-0.9-1-1.5c-0.2-0.6-0.3-1.2-0.3-2
				c0-0.8,0.1-1.4,0.3-2c0.2-0.6,0.5-1.1,0.9-1.5s0.9-0.7,1.4-0.9c0.5-0.2,1.1-0.3,1.7-0.3c0.5,0,1.1,0.1,1.5,0.3
				c0.5,0.2,0.9,0.5,1.3,0.8c0.4,0.4,0.7,0.8,0.9,1.4c0.2,0.6,0.3,1.2,0.3,1.9c0,0.1,0,0.3,0,0.5c0,0.2,0,0.3,0,0.5h-6.1
				c0,0.4,0.1,0.8,0.3,1.1c0.1,0.3,0.3,0.5,0.6,0.7c0.2,0.2,0.5,0.3,0.8,0.4c0.3,0.1,0.6,0.1,0.9,0.1c0.3,0,0.5,0,0.8-0.1
				c0.3-0.1,0.5-0.1,0.7-0.3c0.2-0.1,0.5-0.3,0.7-0.5l1.2,1.1c-0.3,0.3-0.6,0.6-1,0.9c-0.4,0.2-0.8,0.4-1.2,0.5
				S177.5,303.5,177.1,303.5z M174.7,297.7h3.9c0-0.3,0-0.6-0.1-0.8c-0.1-0.2-0.2-0.4-0.4-0.6s-0.4-0.3-0.6-0.4
				c-0.2-0.1-0.5-0.1-0.8-0.1c-0.3,0-0.5,0-0.7,0.1s-0.4,0.2-0.6,0.3s-0.3,0.4-0.5,0.6C174.8,297.1,174.7,297.4,174.7,297.7z"/>
			<path class="st1" d="M185.6,303.5c-1,0-1.8-0.2-2.4-0.7c-0.6-0.5-0.8-1.1-0.8-1.8c0-0.5,0.1-0.9,0.3-1.3c0.2-0.4,0.5-0.8,1-1.1
				s1-0.5,1.6-0.7s1.4-0.2,2.2-0.2c0.1,0,0.2,0,0.4,0s0.3,0,0.5,0c0.2,0,0.4,0,0.5,0l0.1,1.6c-0.1,0-0.3,0-0.5,0c-0.2,0-0.4,0-0.6,0
				c-0.2,0-0.4,0-0.5,0c-0.5,0-1,0-1.3,0.1s-0.7,0.2-0.9,0.3c-0.2,0.1-0.4,0.3-0.5,0.5c-0.1,0.2-0.2,0.4-0.2,0.6
				c0,0.2,0,0.4,0.1,0.5c0.1,0.1,0.2,0.3,0.3,0.3s0.3,0.1,0.4,0.2s0.4,0.1,0.6,0.1c0.4,0,0.7-0.1,1-0.2c0.3-0.1,0.5-0.3,0.8-0.6
				s0.4-0.6,0.5-1c0.1-0.4,0.1-0.9,0.1-1.4c0-0.7-0.1-1.3-0.2-1.7c-0.2-0.4-0.4-0.7-0.7-0.8c-0.3-0.2-0.7-0.2-1.2-0.2
				c-0.4,0-0.8,0.1-1.2,0.2c-0.4,0.1-0.7,0.4-1.1,0.8l-1.2-1.4c0.5-0.5,1.1-0.8,1.7-1.1c0.6-0.2,1.3-0.3,1.9-0.3
				c0.6,0,1.1,0.1,1.6,0.2c0.5,0.1,0.9,0.3,1.3,0.7c0.4,0.3,0.7,0.7,0.9,1.2c0.2,0.5,0.3,1.2,0.3,2v5.2h-2.3v-1.1
				c-0.2,0.2-0.4,0.4-0.6,0.6s-0.4,0.3-0.6,0.4c-0.2,0.1-0.5,0.2-0.7,0.2C186.1,303.5,185.8,303.5,185.6,303.5z"/>
			<path class="st1" d="M193.3,294.3h2.3l0,2.6l-0.3-0.2c0.1-0.4,0.2-0.8,0.3-1.1s0.4-0.6,0.7-0.8c0.3-0.2,0.6-0.4,0.9-0.5
				c0.3-0.1,0.7-0.2,1-0.2c0.5,0,1,0.1,1.4,0.2c0.4,0.2,0.8,0.4,1.2,0.8l-1,1.9l-0.1,0.2l-0.2-0.1c0-0.1-0.1-0.2-0.1-0.3
				c0-0.1-0.1-0.2-0.3-0.4c-0.2-0.1-0.4-0.3-0.6-0.3c-0.2-0.1-0.4-0.1-0.7-0.1c-0.3,0-0.6,0.1-0.9,0.2c-0.3,0.1-0.5,0.3-0.8,0.5
				s-0.4,0.5-0.5,0.8c-0.1,0.3-0.2,0.7-0.2,1.2v4.7h-2.3V294.3z"/>
			<path class="st1" d="M202.6,303.3v-9.1h2.2v1.3c0.2-0.3,0.5-0.5,0.7-0.8c0.3-0.2,0.6-0.4,0.9-0.5c0.3-0.1,0.7-0.2,1-0.2
				c0.5,0,1,0.1,1.5,0.4c0.5,0.3,0.8,0.7,1.1,1.2s0.4,1.3,0.4,2.2v5.5h-2.2v-5.4c0-0.5-0.1-0.9-0.2-1.2c-0.1-0.3-0.3-0.5-0.5-0.7
				c-0.2-0.1-0.4-0.2-0.7-0.2c-0.3,0-0.5,0-0.7,0.1c-0.2,0.1-0.5,0.2-0.7,0.4c-0.2,0.2-0.4,0.4-0.5,0.7s-0.2,0.6-0.2,0.9v5.4H202.6z
				"/>
		</g>
	</g>
</g>
<path class="st8" d="M-217.6,31.3c-4.9,0-8.9,4-8.9,8.9s4,8.9,8.9,8.9c4.9,0,8.9-4,8.9-8.9S-212.7,31.3-217.6,31.3z"/>
<path class="st8" d="M-217.6,263.8c-4.9,0-8.9,4-8.9,8.9s4,8.9,8.9,8.9c4.9,0,8.9-4,8.9-8.9S-212.7,263.8-217.6,263.8z"/>
<circle class="st8" cx="-101.3" cy="157.3" r="8.9"/>
<circle class="st8" cx="-333.8" cy="157.3" r="8.9"/>
<g>
	<path class="st8" d="M-228,272.7c0-0.8,0.1-1.5,0.3-2.3c-2.6-0.1-5.2-0.4-7.8-0.8c-20.6-3.1-41.7-13.9-59.4-30.6
		c-17.8-16.6-30-37-34.4-57.3c-1.1-5-1.7-9.8-1.8-14.4c-0.9,0.2-1.7,0.4-2.7,0.4c-1,0-1.9-0.1-2.8-0.4c0.1,5,0.7,10.2,1.9,15.6
		c4.7,21.4,17.4,42.8,36,60.1c18.5,17.4,40.7,28.7,62.4,32c3,0.5,6,0.7,8.9,0.9C-227.8,274.9-228,273.8-228,272.7z"/>
	<path class="st8" d="M-171.3,205.5c-4.7-21.4-17.4-42.8-36-60.1c-18.5-17.4-40.7-28.7-62.4-32c-22-3.3-41,2.1-53.3,15.3
		c-4.9,5.2-8.4,11.3-10.7,18.2c1.9,0,3.7,0.6,5.2,1.5c2-6,5.2-11.4,9.5-16c9.2-9.8,22.4-14.6,37.2-14.6c22.5,0,48.8,10.9,70.8,31.4
		c17.8,16.6,30,37,34.4,57.3c4.3,20,0.6,37.5-10.5,49.3c-5.6,6-12.8,10.2-21.1,12.5c0.6,1.3,0.9,2.7,0.9,4.3c0,0.4,0,0.8-0.1,1.1
		c9.5-2.5,17.8-7.3,24.2-14.2C-170.7,246.5-166.5,227.2-171.3,205.5z"/>
</g>
<g>
	<path class="st8" d="M-317.7,95.9c-1.6,2.7-3.2,5.4-4.6,8.2l2.1,1.1c1.4-2.7,2.9-5.4,4.5-8.1L-317.7,95.9z"/>
	<path class="st8" d="M-285.8,61.7c-2.5,1.8-5,3.8-7.4,5.8l1.5,1.8c2.3-2,4.8-3.9,7.3-5.7L-285.8,61.7z"/>
	<path class="st8" d="M-333.8,146.9c0.6,0,1.1,0.1,1.6,0.1c0.2-2.3,0.5-4.5,0.8-6.7l-2.3-0.3c-0.3,2.3-0.6,4.6-0.8,7
		C-334.3,146.9-334.1,146.9-333.8,146.9z"/>
	<path class="st8" d="M-296.3,73.3l-1.6-1.7c-2.3,2.1-4.5,4.4-6.6,6.7l1.7,1.6C-300.7,77.7-298.6,75.4-296.3,73.3z"/>
	<path class="st8" d="M-308.6,83.1c-2,2.4-3.9,5-5.7,7.5l1.9,1.3c1.7-2.5,3.6-5,5.5-7.4L-308.6,83.1z"/>
	<path class="st8" d="M-328.2,125.2l-2.2-0.6c-0.9,3-1.6,6.1-2.3,9.1l2.3,0.5C-329.7,131.2-329,128.2-328.2,125.2z"/>
	<path class="st8" d="M-111.9,106c-1.4-2.8-2.9-5.6-4.5-8.3l-2,1.2c1.6,2.6,3,5.4,4.4,8.1L-111.9,106z"/>
	<path class="st8" d="M-119.7,92.4c-1.7-2.6-3.6-5.2-5.5-7.6l-1.8,1.4c1.9,2.4,3.7,4.9,5.4,7.5L-119.7,92.4z"/>
	<path class="st8" d="M-104.5,136.1l2.3-0.4c-0.6-3.1-1.3-6.2-2.1-9.2l-2.3,0.6C-105.7,130.1-105,133.1-104.5,136.1z"/>
	<path class="st8" d="M-106.1,120.5c-1-3-2.1-5.9-3.3-8.8l-2.1,0.9c1.2,2.8,2.3,5.7,3.2,8.6L-106.1,120.5z"/>
	<path class="st8" d="M-140.4,68.8c-2.4-2.1-4.8-4-7.3-5.9l-1.4,1.9c2.5,1.8,4.9,3.8,7.2,5.8L-140.4,68.8z"/>
	<path class="st8" d="M-152.9,59.3c-2.6-1.7-5.3-3.4-8.1-4.9l-1.1,2c2.7,1.5,5.3,3.1,7.9,4.8L-152.9,59.3z"/>
	<path class="st8" d="M-322.9,110.8l-2.1-0.9c-1.3,2.9-2.4,5.8-3.5,8.8l2.2,0.8C-325.3,116.5-324.1,113.6-322.9,110.8z"/>
	<path class="st8" d="M-181.1,45.6c-3-1-6-1.8-9.1-2.6l-0.5,2.3c3,0.7,6,1.6,8.9,2.5L-181.1,45.6z"/>
	<path class="st8" d="M-166.5,51.5c-2.8-1.4-5.7-2.6-8.6-3.8l-0.8,2.2c2.9,1.1,5.7,2.3,8.5,3.7L-166.5,51.5z"/>
	<path class="st8" d="M-144.5,246.2l1.5,1.8c2.4-2,4.8-4.1,7-6.3l-1.6-1.7C-139.8,242.2-142.2,244.2-144.5,246.2z"/>
	<path class="st8" d="M-129.3,79.9c-2.1-2.4-4.2-4.6-6.5-6.8l-1.6,1.7c2.2,2.1,4.3,4.4,6.4,6.7L-129.3,79.9z"/>
	<path class="st8" d="M-133.3,235.6l1.7,1.6c2.1-2.3,4.2-4.7,6.1-7.1l-1.8-1.4C-129.2,231-131.2,233.4-133.3,235.6z"/>
	<path class="st8" d="M-170.6,262.3l1,2.1c2.8-1.3,5.7-2.7,8.4-4.2l-1.1-2C-165,259.7-167.8,261.1-170.6,262.3z"/>
	<path class="st8" d="M-185,267.7l0.7,2.2c3-0.9,6-1.9,8.9-3l-0.8-2.2C-179.1,265.8-182.1,266.8-185,267.7z"/>
	<path class="st8" d="M-123.6,223.7l1.9,1.3c1.8-2.6,3.5-5.2,5.1-7.9l-2-1.2C-120.2,218.6-121.8,221.2-123.6,223.7z"/>
	<path class="st8" d="M-105.1,181.7l2.3,0.5c0.7-3.1,1.2-6.2,1.6-9.3l-2.3-0.3C-103.9,175.7-104.5,178.7-105.1,181.7z"/>
	<path class="st8" d="M-200,271l0.4,2.3c3.1-0.5,6.2-1.1,9.2-1.8l-0.5-2.3C-193.9,270-197,270.6-200,271z"/>
	<path class="st8" d="M-115.6,210.6l2.1,1.1c1.5-2.8,2.8-5.6,4-8.5l-2.1-0.9C-112.8,205-114.2,207.9-115.6,210.6z"/>
	<path class="st8" d="M-109.4,196.5l2.2,0.8c1.1-2.9,2-6,2.8-9l-2.3-0.6C-107.4,190.6-108.3,193.6-109.4,196.5z"/>
	<path class="st8" d="M-157,255.1l1.2,2c2.7-1.6,5.3-3.4,7.8-5.3l-1.4-1.9C-151.9,251.8-154.4,253.5-157,255.1z"/>
	<path class="st8" d="M-196.3,41.8c-3.1-0.6-6.2-1-9.3-1.3l-0.2,2.3c3.1,0.3,6.1,0.7,9.1,1.3L-196.3,41.8z"/>
	<path class="st8" d="M-243.1,42.6c-3.1,0.7-6.1,1.5-9.1,2.4l0.7,2.2c2.9-0.9,5.9-1.7,8.9-2.4L-243.1,42.6z"/>
	<path class="st8" d="M-272.5,53.4c-2.8,1.5-5.5,3.1-8.1,4.7l1.3,2c2.6-1.6,5.3-3.2,8-4.6L-272.5,53.4z"/>
	<path class="st8" d="M-258.1,47c-2.9,1.1-5.9,2.3-8.7,3.6l1,2.1c2.8-1.3,5.6-2.5,8.5-3.5L-258.1,47z"/>
	<path class="st8" d="M-228,40.3c-3,0.3-6,0.6-8.9,1.1l0.4,2.3c2.9-0.5,5.9-0.9,8.8-1.1C-227.9,41.9-228,41.1-228,40.3z"/>
	<g>
		<path class="st8" d="M-101.3,146.9c0.2,0,0.5,0,0.7,0c-0.1-1.7-0.3-3.3-0.5-5l-2.3,0.3c0.2,1.6,0.4,3.2,0.5,4.8
			C-102.4,146.9-101.9,146.9-101.3,146.9z"/>
	</g>
</g>
</svg>
