<?xml version="1.0" encoding="utf-8"?>
<!-- Generator: Adobe Illustrator 24.1.2, SVG Export Plug-In . SVG Version: 6.00 Build 0)  -->
<svg version="1.1" id="Capa_1" xmlns="http://www.w3.org/2000/svg" xmlns:xlink="http://www.w3.org/1999/xlink" x="0px" y="0px"
	 viewBox="0 0 512 512" style="enable-background:new 0 0 512 512;" xml:space="preserve">
<style type="text/css">
	.st0{fill:#FAFAFA;}
</style>
<path class="st0" d="M436,307.3l-9.2,5.2l-21.7-38.4c18.1-16.1,31.2-37,37.8-60.9c9-32.6,4.8-66.9-11.9-96.3
	c-11.2-19.8-27-35.5-45.4-46.4v-49c0-11.9-9.6-21.5-21.5-21.5l-23.3,0c-4.1,0-7.5,3.4-7.5,7.5v0c0,4.1,3.4,7.5,7.5,7.5h19.5
	c5.7,0,10.4,4.6,10.4,10.4v37.5c-35.2-15-76.7-14.1-112.5,6.1c-60.8,34.5-82.3,112-47.8,172.8c23.3,41.2,66.3,64.3,110.6,64.3
	c12.6,0,25.3-1.9,37.6-5.8l12.1,21.4V486c0,6.1-4.9,11-11,11H76.2v-56.4H19.7v-23.2c0-4.1-3.4-7.5-7.5-7.5h0c-4.1,0-7.5,3.4-7.5,7.5
	v33.8L65.5,512h297.3c12.6,0,22.8-10.2,22.8-22.8V369.9l56.6,100l28.6,7.9l28.5-16.1l7.9-28.6L436,307.3z M61.2,486.4l-30.8-30.8
	h30.8V486.4z M223.4,234.5c-30.4-53.6-11.5-122,42.2-152.4c53.6-30.4,122-11.5,152.4,42.2c14.7,26,18.4,56.1,10.5,84.9
	c-8,28.8-26.7,52.7-52.7,67.5C322.2,307.1,253.8,288.1,223.4,234.5L223.4,234.5z M383.2,289.7c3.4-1.9,6.7-4,9.9-6.2l20.6,36.4
	l-20.4,11.6L372.7,295C376.3,293.4,379.8,291.7,383.2,289.7L383.2,289.7z M486.5,451.6l-17.7,10l-16.6-4.6l-60.8-107.3l38.9-22
	L491.1,435L486.5,451.6z"/>
<path class="st0" d="M405.6,131.3c-12.8-22.7-33.7-39-58.8-45.9c-25.1-7-51.4-3.7-74.1,9.1c-46.8,26.5-63.3,86.1-36.8,132.9
	c12.8,22.7,33.7,39,58.8,45.9c8.6,2.4,17.4,3.6,26.2,3.6c16.6,0,33.1-4.3,47.9-12.7C415.6,237.8,432.1,178.1,405.6,131.3
	L405.6,131.3z M361.4,251.2c-19.2,10.9-41.4,13.6-62.7,7.7s-38.9-19.7-49.8-38.9c-22.4-39.6-8.5-90.1,31.1-112.5
	c12.6-7.1,26.5-10.8,40.5-10.8c7.4,0,14.8,1,22.1,3c21.2,5.9,38.9,19.7,49.8,38.9C414.9,178.3,401,228.8,361.4,251.2L361.4,251.2z"
	/>
<path class="st0" d="M78.8,351.6h-30c-4.1,0-7.5,3.4-7.5,7.5v55.1c0,4.1,3.4,7.5,7.5,7.5h30c4.1,0,7.5-3.4,7.5-7.5v-55.1
	C86.3,354.9,83,351.6,78.8,351.6z M63.8,406.7L63.8,406.7c-4.1,0-7.5-3.4-7.5-7.5v-25.1c0-4.1,3.4-7.5,7.5-7.5h0
	c4.1,0,7.5,3.4,7.5,7.5v25.1C71.3,403.4,68,406.7,63.8,406.7z"/>
<path class="st0" d="M146.3,414.2v-90.6c0-4.1-3.4-7.5-7.5-7.5h-30c-4.1,0-7.5,3.4-7.5,7.5v90.6c0,4.1,3.4,7.5,7.5,7.5h30
	C143,421.7,146.3,418.4,146.3,414.2z M123.8,331.1L123.8,331.1c4.1,0,7.5,3.4,7.5,7.5v60.6c0,4.1-3.4,7.5-7.5,7.5h0
	c-4.1,0-7.5-3.4-7.5-7.5v-60.6C116.3,334.5,119.7,331.1,123.8,331.1z"/>
<path class="st0" d="M168.8,421.7h30c4.1,0,7.5-3.4,7.5-7.5V303.9c0-4.1-3.4-7.5-7.5-7.5h-30c-4.1,0-7.5,3.4-7.5,7.5v110.3
	C161.3,418.4,164.7,421.7,168.8,421.7z M183.8,311.4L183.8,311.4c4.1,0,7.5,3.4,7.5,7.5v80.3c0,4.1-3.4,7.5-7.5,7.5l0,0
	c-4.1,0-7.5-3.4-7.5-7.5v-80.3C176.3,314.8,179.7,311.4,183.8,311.4z"/>
<path class="st0" d="M30.5,15h280.4c4.1,0,7.5-3.4,7.5-7.5v0c0-4.1-3.4-7.5-7.5-7.5L25.3,0C13.9,0,4.7,9.2,4.7,20.6v366.8
	c0,4.1,3.4,7.5,7.5,7.5h0c4.1,0,7.5-3.4,7.5-7.5l0-361.6C19.7,19.8,24.6,15,30.5,15z"/>
<path class="st0" d="M347.5,126.7l-0.1,0.1c-1.6,3.1-0.7,6.9,2,9.1c5.5,4.5,11.4,11.4,15.1,16c2.1,2.7,5.8,3.5,8.9,2l0,0
	c4.3-2.1,5.5-7.6,2.5-11.2c-4.5-5.5-11-12.9-17.2-18.2C355.2,121.4,349.6,122.5,347.5,126.7z"/>
<path class="st0" d="M373.1,175.5c0.1,1.9,0.2,3.7,0.1,5.6c-0.1,3.8,2.6,7.1,6.3,7.7l0,0c4.5,0.7,8.5-2.7,8.7-7.2
	c0.1-2.4,0-4.7-0.1-7.1c-0.3-4.5-4.5-7.8-9-6.9h0C375.4,168.3,372.8,171.7,373.1,175.5z"/>
<path class="st0" d="M49.7,52.5c0-4.1,3.4-7.5,7.5-7.5h30h15h15h15.9c4.1,0,7.5-3.4,7.5-7.5v0c0-4.1-3.4-7.5-7.5-7.5h-15.9h-15h-15
	h-45c-4.1,0-7.5,3.4-7.5,7.5v27c0,4.1,3.4,7.5,7.5,7.5h0c4.1,0,7.5-3.4,7.5-7.5L49.7,52.5z"/>
<path class="st0" d="M42.2,87L42.2,87c4.1,0,7.5,3.4,7.5,7.5v0c0,4.1-3.4,7.5-7.5,7.5h0c-4.1,0-7.5-3.4-7.5-7.5v0
	C34.7,90.3,38.1,87,42.2,87z"/>
<path class="st0" d="M455.5,421L455.5,421c3.6-2,8.2-0.8,10.2,2.8v0c2,3.6,0.8,8.2-2.8,10.2l0,0c-3.6,2-8.2,0.8-10.2-2.8v0
	C450.6,427.6,451.9,423.1,455.5,421z"/>
<path class="st0" d="M425,366.9L425,366.9c3.6-2,8.2-0.8,10.2,2.8l16.1,28.3c2,3.6,0.8,8.2-2.8,10.2l0,0c-3.6,2-8.2,0.8-10.2-2.8
	l-16.1-28.3C420.2,373.6,421.4,369,425,366.9z"/>
<path class="st0" d="M269.4,406.7L269.4,406.7c4.1,0,7.5,3.4,7.5,7.5l0,0c0,4.1-3.4,7.5-7.5,7.5h0c-4.1,0-7.5-3.4-7.5-7.5l0,0
	C261.9,410.1,265.2,406.7,269.4,406.7z"/>
<path class="st0" d="M239.4,406.7L239.4,406.7c4.1,0,7.5,3.4,7.5,7.5l0,0c0,4.1-3.4,7.5-7.5,7.5h0c-4.1,0-7.5-3.4-7.5-7.5l0,0
	C231.9,410.1,235.2,406.7,239.4,406.7z"/>
<path class="st0" d="M299.4,406.7h34.7c4.1,0,7.5,3.4,7.5,7.5l0,0c0,4.1-3.4,7.5-7.5,7.5h-34.7c-4.1,0-7.5-3.4-7.5-7.5l0,0
	C291.9,410.1,295.2,406.7,299.4,406.7z"/>
<path class="st0" d="M239.4,373.5h94.7c4.1,0,7.5,3.4,7.5,7.5l0,0c0,4.1-3.4,7.5-7.5,7.5h-94.7c-4.1,0-7.5-3.4-7.5-7.5l0,0
	C231.9,376.9,235.2,373.5,239.4,373.5z"/>
<path class="st0" d="M239.3,340.3H273c4.1,0,7.5,3.4,7.5,7.5l0,0c0,4.1-3.4,7.5-7.5,7.5h-33.6c-4.1,0-7.5-3.4-7.5-7.5l0,0
	C231.8,343.7,235.2,340.3,239.3,340.3z"/>
<path class="st0" d="M303,340.3h31.1c4.1,0,7.5,3.4,7.5,7.5l0,0c0,4.1-3.4,7.5-7.5,7.5H303c-4.1,0-7.5-3.4-7.5-7.5l0,0
	C295.5,343.7,298.8,340.3,303,340.3z"/>
<path class="st0" d="M167.7,212.4h-16.6V94c0-4.1-3.4-7.5-7.5-7.5h0c-4.1,0-7.5,3.4-7.5,7.5v118.4h-16.6v-70.5
	c0-4.1-3.4-7.5-7.5-7.5h0c-4.1,0-7.5,3.4-7.5,7.5v70.5H87.9v-30.3c0-4.1-3.4-7.5-7.5-7.5h0c-4.1,0-7.5,3.4-7.5,7.5v30.3H56.3v-12.9
	c0-4.1-3.4-7.5-7.5-7.5h0c-4.1,0-7.5,3.4-7.5,7.5v20.4c0,4.1,3.4,7.5,7.5,7.5h126.4c4.1,0,7.5-3.4,7.5-7.5V74.3
	c0-4.1-3.4-7.5-7.5-7.5h0c-4.1,0-7.5,3.4-7.5,7.5L167.7,212.4z"/>
<path class="st0" d="M288.2,474.5L288.2,474.5c0-4.1-3.4-7.5-7.5-7.5h-4.7c-4.1,0-7.5,3.4-7.5,7.5l0,0c0,4.1,3.4,7.5,7.5,7.5h4.7
	C284.8,482,288.2,478.6,288.2,474.5z"/>
<path class="st0" d="M355.7,474.5v-15c0-4.1-3.4-7.5-7.5-7.5l0,0c-4.1,0-7.5,3.4-7.5,7.5v0c0,4.1-3.4,7.5-7.5,7.5h-27.2
	c-4.1,0-7.5,3.4-7.5,7.5l0,0c0,4.1,3.4,7.5,7.5,7.5h42.2C352.3,482,355.7,478.6,355.7,474.5z"/>
</svg>
