<?xml version="1.0" encoding="utf-8"?>
<!-- Generator: Adobe Illustrator 24.0.3, SVG Export Plug-In . SVG Version: 6.00 Build 0)  -->
<svg version="1.1" id="Layer_1" xmlns="http://www.w3.org/2000/svg" xmlns:xlink="http://www.w3.org/1999/xlink" x="0px" y="0px"
	 viewBox="0 0 86.6 88.39" style="enable-background:new 0 0 86.6 88.39;" xml:space="preserve">
<style type="text/css">
	.st0{fill:#202025;}
</style>
<g>
	<path class="st0" d="M74.21,14.17h-1.75v-9.7c0-2.47-2-4.47-4.47-4.47h-8.45c-2.47,0-4.47,2-4.47,4.47v9.7H31.52v-9.7
		c0-2.47-2-4.47-4.47-4.47H18.6c-2.47,0-4.47,2-4.47,4.47v9.7h-1.75C5.55,14.17,0,19.71,0,26.56v49.45
		c0,6.84,5.55,12.39,12.39,12.39h61.82c6.84,0,12.39-5.55,12.39-12.39V26.56C86.6,19.71,81.05,14.17,74.21,14.17z M77.77,75.75
		c0,2.8-1.92,5.07-4.29,5.07H13.13c-2.37,0-4.29-2.27-4.29-5.07V39.83c0-2.8,1.92-5.07,4.29-5.07h60.35c2.37,0,4.29,2.27,4.29,5.07
		V75.75z"/>
	<path class="st0" d="M24.01,55.89h-6.04c-1.6,0-2.9-1.3-2.9-2.9v-6.04c0-1.6,1.3-2.9,2.9-2.9h6.04c1.6,0,2.9,1.3,2.9,2.9V53
		C26.9,54.6,25.61,55.89,24.01,55.89z"/>
	<path class="st0" d="M46.32,55.89h-6.04c-1.6,0-2.9-1.3-2.9-2.9v-6.04c0-1.6,1.3-2.9,2.9-2.9h6.04c1.6,0,2.9,1.3,2.9,2.9V53
		C49.22,54.6,47.92,55.89,46.32,55.89z"/>
	<path class="st0" d="M68.63,55.89h-6.04c-1.6,0-2.9-1.3-2.9-2.9v-6.04c0-1.6,1.3-2.9,2.9-2.9h6.04c1.6,0,2.9,1.3,2.9,2.9V53
		C71.53,54.6,70.23,55.89,68.63,55.89z"/>
	<path class="st0" d="M24.01,72.1h-6.04c-1.6,0-2.9-1.3-2.9-2.9v-6.04c0-1.6,1.3-2.9,2.9-2.9h6.04c1.6,0,2.9,1.3,2.9,2.9v6.04
		C26.9,70.81,25.61,72.1,24.01,72.1z"/>
	<path class="st0" d="M46.32,72.1h-6.04c-1.6,0-2.9-1.3-2.9-2.9v-6.04c0-1.6,1.3-2.9,2.9-2.9h6.04c1.6,0,2.9,1.3,2.9,2.9v6.04
		C49.22,70.81,47.92,72.1,46.32,72.1z"/>
	<path class="st0" d="M68.63,72.1h-6.04c-1.6,0-2.9-1.3-2.9-2.9v-6.04c0-1.6,1.3-2.9,2.9-2.9h6.04c1.6,0,2.9,1.3,2.9,2.9v6.04
		C71.53,70.81,70.23,72.1,68.63,72.1z"/>
</g>
</svg>
