<?xml version="1.0" encoding="utf-8"?>
<!-- Generator: Adobe Illustrator 24.1.3, SVG Export Plug-In . SVG Version: 6.00 Build 0)  -->
<svg version="1.1" id="Layer_1" xmlns="http://www.w3.org/2000/svg" xmlns:xlink="http://www.w3.org/1999/xlink" x="0px" y="0px"
	 viewBox="0 0 512 512" style="enable-background:new 0 0 512 512;" xml:space="preserve">
<style type="text/css">
	.st0{fill:#FFFFFF;}
</style>
<path class="st0" d="M477.4,86.4H163.8c-4.7,0-8.5,3.8-8.5,8.5v26.3c0,4.5-3.4,8.5-8,8.8c-5,0.3-9.1-3.6-9.1-8.5V94.9
	c0-4.7-3.8-8.5-8.5-8.5h-96c-18.9,0-34.1,15.3-34.1,34.1v47c0,12.6,6.8,24.1,17.8,30c45.9,24.5,45.9,90.4,0,114.9
	c-11,5.9-17.8,17.3-17.8,30v47c0,18.9,15.3,34.1,34.1,34.1h96c4.7,0,8.5-3.8,8.5-8.5v-26.3c0-4.5,3.4-8.5,8-8.8
	c5-0.3,9.1,3.6,9.1,8.5v26.6c0,4.7,3.8,8.5,8.5,8.5h313.6c18.9,0,34.1-15.3,34.1-34.1V120.5C511.5,101.6,496.2,86.4,477.4,86.4
	L477.4,86.4z M155.2,323.8c0,4.7-3.8,8.5-8.5,8.5c-4.7,0-8.5-3.8-8.5-8.5v-33.4c0-4.7,3.8-8.5,8.5-8.5c4.7,0,8.5,3.8,8.5,8.5V323.8z
	 M155.2,219.4c0,4.7-3.8,8.5-8.5,8.5c-4.7,0-8.5-3.8-8.5-8.5V186c0-4.7,3.8-8.5,8.5-8.5c4.7,0,8.5,3.8,8.5,8.5V219.4z"/>
</svg>
