<?xml version="1.0" encoding="utf-8"?>
<!-- Generator: Adobe Illustrator 23.0.4, SVG Export Plug-In . SVG Version: 6.00 Build 0)  -->
<svg version="1.1" id="Layer_1" xmlns="http://www.w3.org/2000/svg" xmlns:xlink="http://www.w3.org/1999/xlink" x="0px" y="0px"
	 viewBox="0 0 190 190" style="enable-background:new 0 0 190 190;" xml:space="preserve">
<style type="text/css">
	.st0{fill-rule:evenodd;clip-rule:evenodd;fill:#D8D8D8;fill-opacity:0;}
	.st1{filter:url(#Adobe_OpacityMaskFilter);}
	.st2{fill-rule:evenodd;clip-rule:evenodd;fill:#FFFFFF;}
	.st3{mask:url(#mask-2_1_);fill-rule:evenodd;clip-rule:evenodd;fill:#E6E8F1;}
</style>
<g id="Home">
	<g id="Big-screen" transform="translate(-278.000000, -1891.000000)">
		<g transform="translate(0.000000, 718.000000)">
			<g id="Dots-circle" transform="translate(271.000000, 1166.000000)">
				<g id="Mask">
					<circle class="st0" cx="102" cy="102" r="102"/>
				</g>
				<defs>
					<filter id="Adobe_OpacityMaskFilter" filterUnits="userSpaceOnUse" x="7" y="7" width="190" height="190">
						<feColorMatrix  type="matrix" values="1 0 0 0 0  0 1 0 0 0  0 0 1 0 0  0 0 0 1 0"/>
					</filter>
				</defs>
				<mask maskUnits="userSpaceOnUse" x="7" y="7" width="190" height="190" id="mask-2_1_">
					<g class="st1">
						<circle id="path-1_1_" class="st2" cx="102" cy="102" r="102"/>
					</g>
				</mask>
				<path id="Combined-Shape" class="st3" d="M12,17c-2.8,0-5-2.2-5-5s2.2-5,5-5s5,2.2,5,5S14.8,17,12,17z M42,17c-2.8,0-5-2.2-5-5
					s2.2-5,5-5s5,2.2,5,5S44.8,17,42,17z M72,17c-2.8,0-5-2.2-5-5s2.2-5,5-5s5,2.2,5,5S74.8,17,72,17z M102,17c-2.8,0-5-2.2-5-5
					s2.2-5,5-5s5,2.2,5,5S104.8,17,102,17z M132,17c-2.8,0-5-2.2-5-5s2.2-5,5-5s5,2.2,5,5S134.8,17,132,17z M162,17
					c-2.8,0-5-2.2-5-5s2.2-5,5-5s5,2.2,5,5S164.8,17,162,17z M192,17c-2.8,0-5-2.2-5-5s2.2-5,5-5s5,2.2,5,5S194.8,17,192,17z M12,47
					c-2.8,0-5-2.2-5-5s2.2-5,5-5s5,2.2,5,5S14.8,47,12,47z M42,47c-2.8,0-5-2.2-5-5s2.2-5,5-5s5,2.2,5,5S44.8,47,42,47z M72,47
					c-2.8,0-5-2.2-5-5s2.2-5,5-5s5,2.2,5,5S74.8,47,72,47z M102,47c-2.8,0-5-2.2-5-5s2.2-5,5-5s5,2.2,5,5S104.8,47,102,47z M132,47
					c-2.8,0-5-2.2-5-5s2.2-5,5-5s5,2.2,5,5S134.8,47,132,47z M162,47c-2.8,0-5-2.2-5-5s2.2-5,5-5s5,2.2,5,5S164.8,47,162,47z
					 M192,47c-2.8,0-5-2.2-5-5s2.2-5,5-5s5,2.2,5,5S194.8,47,192,47z M12,77c-2.8,0-5-2.2-5-5s2.2-5,5-5s5,2.2,5,5S14.8,77,12,77z
					 M42,77c-2.8,0-5-2.2-5-5s2.2-5,5-5s5,2.2,5,5S44.8,77,42,77z M72,77c-2.8,0-5-2.2-5-5s2.2-5,5-5s5,2.2,5,5S74.8,77,72,77z
					 M102,77c-2.8,0-5-2.2-5-5s2.2-5,5-5s5,2.2,5,5S104.8,77,102,77z M132,77c-2.8,0-5-2.2-5-5s2.2-5,5-5s5,2.2,5,5S134.8,77,132,77
					z M162,77c-2.8,0-5-2.2-5-5s2.2-5,5-5s5,2.2,5,5S164.8,77,162,77z M192,77c-2.8,0-5-2.2-5-5s2.2-5,5-5s5,2.2,5,5
					S194.8,77,192,77z M12,107c-2.8,0-5-2.2-5-5s2.2-5,5-5s5,2.2,5,5S14.8,107,12,107z M42,107c-2.8,0-5-2.2-5-5s2.2-5,5-5
					s5,2.2,5,5S44.8,107,42,107z M72,107c-2.8,0-5-2.2-5-5s2.2-5,5-5s5,2.2,5,5S74.8,107,72,107z M102,107c-2.8,0-5-2.2-5-5
					s2.2-5,5-5s5,2.2,5,5S104.8,107,102,107z M132,107c-2.8,0-5-2.2-5-5s2.2-5,5-5s5,2.2,5,5S134.8,107,132,107z M162,107
					c-2.8,0-5-2.2-5-5s2.2-5,5-5s5,2.2,5,5S164.8,107,162,107z M192,107c-2.8,0-5-2.2-5-5s2.2-5,5-5s5,2.2,5,5S194.8,107,192,107z
					 M12,137c-2.8,0-5-2.2-5-5s2.2-5,5-5s5,2.2,5,5S14.8,137,12,137z M42,137c-2.8,0-5-2.2-5-5s2.2-5,5-5s5,2.2,5,5S44.8,137,42,137
					z M72,137c-2.8,0-5-2.2-5-5s2.2-5,5-5s5,2.2,5,5S74.8,137,72,137z M102,137c-2.8,0-5-2.2-5-5s2.2-5,5-5s5,2.2,5,5
					S104.8,137,102,137z M132,137c-2.8,0-5-2.2-5-5s2.2-5,5-5s5,2.2,5,5S134.8,137,132,137z M162,137c-2.8,0-5-2.2-5-5s2.2-5,5-5
					s5,2.2,5,5S164.8,137,162,137z M192,137c-2.8,0-5-2.2-5-5s2.2-5,5-5s5,2.2,5,5S194.8,137,192,137z M12,167c-2.8,0-5-2.2-5-5
					s2.2-5,5-5s5,2.2,5,5S14.8,167,12,167z M42,167c-2.8,0-5-2.2-5-5s2.2-5,5-5s5,2.2,5,5S44.8,167,42,167z M72,167
					c-2.8,0-5-2.2-5-5s2.2-5,5-5s5,2.2,5,5S74.8,167,72,167z M102,167c-2.8,0-5-2.2-5-5s2.2-5,5-5s5,2.2,5,5S104.8,167,102,167z
					 M132,167c-2.8,0-5-2.2-5-5s2.2-5,5-5s5,2.2,5,5S134.8,167,132,167z M162,167c-2.8,0-5-2.2-5-5s2.2-5,5-5s5,2.2,5,5
					S164.8,167,162,167z M192,167c-2.8,0-5-2.2-5-5s2.2-5,5-5s5,2.2,5,5S194.8,167,192,167z M12,197c-2.8,0-5-2.2-5-5s2.2-5,5-5
					s5,2.2,5,5S14.8,197,12,197z M42,197c-2.8,0-5-2.2-5-5s2.2-5,5-5s5,2.2,5,5S44.8,197,42,197z M72,197c-2.8,0-5-2.2-5-5
					s2.2-5,5-5s5,2.2,5,5S74.8,197,72,197z M102,197c-2.8,0-5-2.2-5-5s2.2-5,5-5s5,2.2,5,5S104.8,197,102,197z M132,197
					c-2.8,0-5-2.2-5-5s2.2-5,5-5s5,2.2,5,5S134.8,197,132,197z M162,197c-2.8,0-5-2.2-5-5s2.2-5,5-5s5,2.2,5,5S164.8,197,162,197z
					 M192,197c-2.8,0-5-2.2-5-5s2.2-5,5-5s5,2.2,5,5S194.8,197,192,197z"/>
			</g>
		</g>
	</g>
</g>
</svg>
