<?xml version="1.0" encoding="UTF-8"?>
<svg width="35px" height="32px" viewBox="0 0 35 32" version="1.1" xmlns="http://www.w3.org/2000/svg" xmlns:xlink="http://www.w3.org/1999/xlink">
    <!-- Generator: Sketch 46.2 (44496) - http://www.bohemiancoding.com/sketch -->
    <title>home</title>
    <desc>Created with Sketch.</desc>
    <defs></defs>
    <g id="Page-1" stroke="none" stroke-width="1" fill="none" fill-rule="evenodd">
        <g id="home" fill-rule="nonzero" fill="#FFFFFF">
            <path d="M34.6285088,12.3532943 L18.0703021,0.229717349 C17.7510039,-0.00402534113 17.3172222,-0.00402534113 16.9980604,0.229717349 L0.439717349,12.3532943 C0.0352729045,12.6494639 -0.0526023392,13.2173782 0.243567251,13.6218226 C0.539736842,14.0262671 1.1077193,14.1140058 1.51209552,13.8179727 L17.5341131,2.08690058 L33.5561306,13.8179045 C33.7176901,13.9362768 33.9054483,13.9932456 34.0915692,13.9932456 C34.3710234,13.9932456 34.6467934,13.8646394 34.8245906,13.6217544 C35.1208285,13.2173782 35.0329532,12.6494639 34.6285088,12.3532943 Z" id="Shape"></path>
            <path d="M30.2409552,14.0234016 C29.7397661,14.0234016 29.3333431,14.4297563 29.3333431,14.9310136 L29.3333431,29.3778265 L22.0725828,29.3778265 L22.0725828,21.4918421 C22.0725828,18.989308 20.0365789,16.9534405 17.5341813,16.9534405 C15.0317836,16.9534405 12.9957797,18.9894444 12.9957797,21.4918421 L12.9957797,29.3778947 L5.73495127,29.3778947 L5.73495127,14.9310819 C5.73495127,14.4298246 5.32852827,14.0234698 4.82733918,14.0234698 C4.3261501,14.0234698 3.9197271,14.4298246 3.9197271,14.9310819 L3.9197271,30.285575 C3.9197271,30.7868324 4.3261501,31.1931871 4.82733918,31.1931871 L13.9033918,31.1931871 C14.3807018,31.1931871 14.7712963,30.824425 14.8074561,30.3562573 C14.8096394,30.335039 14.8110039,30.3118421 14.8110039,30.285575 L14.8110039,21.4919103 C14.8110039,19.9903216 16.0325926,18.7687329 17.5341813,18.7687329 C19.03577,18.7687329 20.2573587,19.9903899 20.2573587,21.4919103 L20.2573587,30.285575 C20.2573587,30.3117057 20.2587232,30.3344932 20.2609064,30.3554386 C20.2966569,30.8239474 20.6873879,31.1931871 21.1649708,31.1931871 L30.2410234,31.1931871 C30.7422807,31.1931871 31.1486355,30.7868324 31.1486355,30.285575 L31.1486355,14.9310819 C31.1485673,14.4297563 30.7422125,14.0234016 30.2409552,14.0234016 Z" id="Shape"></path>
        </g>
    </g>
</svg>