<?xml version="1.0" encoding="utf-8"?>
<!-- Generator: Adobe Illustrator 18.0.0, SVG Export Plug-In . SVG Version: 6.00 Build 0)  -->
<!DOCTYPE svg PUBLIC "-//W3C//DTD SVG 1.1//EN" "http://www.w3.org/Graphics/SVG/1.1/DTD/svg11.dtd">
<svg version="1.1" id="Layer_1" xmlns="http://www.w3.org/2000/svg" xmlns:xlink="http://www.w3.org/1999/xlink" x="0px" y="0px"
	 width="41px" height="41px" viewBox="0 0 41 41" enable-background="new 0 0 41 41" xml:space="preserve">
<g>
	<circle fill="none" stroke="#FFFFFF" stroke-width="2" stroke-miterlimit="10" cx="20.5" cy="20.5" r="18.3"/>
	<path fill="#FFFFFF" d="M28.6,13.9c-0.5-0.5-1.2-0.8-2-0.8c-2.5-0.1-4.3,1.2-5.2,3.9c-0.1,0.1,0,0.3,0.1,0.4
		c0.1,0.1,0.3,0.2,0.4,0.1c0.3-0.1,0.6-0.1,0.8-0.1c0.4,0,0.8,0.1,1.1,0.4c0.2,0.2,0.2,0.6,0.1,1.1c-0.1,0.4-0.7,1.5-1.4,2.6
		c-0.9,1.4-1.4,2-1.5,2c-0.5,0-2.2-7.5-2.2-7.7c-0.5-1.7-0.7-2.6-2.3-2.6c-1.2,0-3.9,2.2-6.1,4.1c-0.1,0.1-0.2,0.2-0.3,0.3
		c-0.2,0.2-0.2,0.5-0.1,0.7l0.4,0.5c0.2,0.2,0.5,0.3,0.7,0.1l0,0c0.7-0.5,1.4-1,1.9-1c0.6,0,1,0.8,1.6,2.9c1.1,4,2.7,8.7,4.4,8.7
		c1.8,0,3.9-1.5,6.6-5.1c2.5-3.2,3.8-5.8,3.9-7.6l0,0C29.5,15.6,29.2,14.6,28.6,13.9z"/>
</g>
</svg>
