<?xml version="1.0" encoding="utf-8"?>
<!-- Generator: Adobe Illustrator 18.0.0, SVG Export Plug-In . SVG Version: 6.00 Build 0)  -->
<!DOCTYPE svg PUBLIC "-//W3C//DTD SVG 1.1//EN" "http://www.w3.org/Graphics/SVG/1.1/DTD/svg11.dtd">
<svg version="1.1" id="Layer_1" xmlns="http://www.w3.org/2000/svg" xmlns:xlink="http://www.w3.org/1999/xlink" x="0px" y="0px"
	 width="41px" height="41px" viewBox="0 0 41 41" enable-background="new 0 0 41 41" xml:space="preserve">
<g>
	<circle fill="none" stroke="#FFFFFF" stroke-width="2" stroke-miterlimit="10" cx="20.5" cy="20.5" r="18.3"/>
	<g>
		<path fill="#FFFFFF" d="M20.5,30.5h6.7c0.7,0,1.2-0.6,1.2-1.2V13.1v-1.3c0-0.7-0.6-1.2-1.2-1.2h-6.7h-2.2v0.4c0,0,0,0.1,0,0.1v2.7
			v0.7c0,1-0.8,1.8-1.8,1.8h-0.7h-2.7c0,0-0.1,0-0.1,0h-0.4v13c0,0.7,0.6,1.2,1.2,1.2h1.4H20.5L20.5,30.5z M20.8,27h-4.3
			c-0.3,0-0.6-0.4-0.6-0.8c0-0.4,0.3-0.8,0.6-0.8h4.3c0.3,0,0.6,0.4,0.6,0.8C21.3,26.6,21.1,27,20.8,27z M25.1,23.8h-8.7
			c-0.3,0-0.6-0.4-0.6-0.8c0-0.4,0.3-0.8,0.6-0.8h8.7c0.3,0,0.6,0.4,0.6,0.8C25.7,23.5,25.4,23.8,25.1,23.8z M16.4,18.9h8.7
			c0.3,0,0.6,0.4,0.6,0.8c0,0.4-0.3,0.8-0.6,0.8h-8.7c-0.3,0-0.6-0.4-0.6-0.8C15.8,19.2,16.1,18.9,16.4,18.9z"/>
		<path fill="#FFFFFF" d="M13.1,15h3c0,0,0,0,0,0c0.5,0,0.9-0.4,0.9-0.9c0,0,0,0,0,0v-3c0-0.3-0.2-0.5-0.5-0.5c-0.1,0-0.2,0-0.3,0.1
			l-3.5,3.5C12.4,14.5,12.7,15,13.1,15z"/>
	</g>
</g>
</svg>
