<?xml version="1.0" encoding="utf-8"?>
<!-- Generator: Adobe Illustrator 18.0.0, SVG Export Plug-In . SVG Version: 6.00 Build 0)  -->
<!DOCTYPE svg PUBLIC "-//W3C//DTD SVG 1.1//EN" "http://www.w3.org/Graphics/SVG/1.1/DTD/svg11.dtd">
<svg version="1.1" id="Layer_1" xmlns="http://www.w3.org/2000/svg" xmlns:xlink="http://www.w3.org/1999/xlink" x="0px" y="0px"
	 width="41px" height="41px" viewBox="0 0 41 41" enable-background="new 0 0 41 41" xml:space="preserve">
<g>
	<circle fill="none" stroke="#FFFFFF" stroke-width="2" stroke-miterlimit="10" cx="20.5" cy="20.5" r="18.3"/>
	<g>
		<path fill="#F2F2F2" d="M29.4,22.4V29h-3.8v-6.2c0-1.5-0.6-2.6-1.9-2.6c-1.1,0-1.7,0.7-2,1.4c-0.1,0.2-0.1,0.6-0.1,0.9V29h-3.8
			c0,0,0.1-10.4,0-11.5h3.8v1.6c0,0,0,0,0,0h0v0c0.5-0.8,1.4-1.9,3.4-1.9C27.5,17.3,29.4,18.9,29.4,22.4L29.4,22.4z M13.7,12
			c-1.3,0-2.2,0.9-2.2,2c0,1.1,0.8,2,2.1,2h0c1.3,0,2.2-0.9,2.2-2C15.9,12.8,15.1,12,13.7,12L13.7,12z M11.8,29h3.8V17.5h-3.8V29z"
			/>
	</g>
</g>
</svg>
