<?xml version="1.0" encoding="utf-8"?>
<!-- Generator: Adobe Illustrator 18.0.0, SVG Export Plug-In . SVG Version: 6.00 Build 0)  -->
<!DOCTYPE svg PUBLIC "-//W3C//DTD SVG 1.1//EN" "http://www.w3.org/Graphics/SVG/1.1/DTD/svg11.dtd">
<svg version="1.1" id="Layer_1" xmlns="http://www.w3.org/2000/svg" xmlns:xlink="http://www.w3.org/1999/xlink" x="0px" y="0px"
	 width="41px" height="41px" viewBox="0 0 41 41" enable-background="new 0 0 41 41" xml:space="preserve">
<g>
	<path fill="#FFFFFF" d="M24,31.9c-0.1-0.1-0.2-0.3-0.2-0.5v-3.7c0-1.1-0.3-1.9-0.9-2.5c0.7-0.1,1.3-0.2,1.8-0.3
		c0.5-0.1,1.1-0.4,1.6-0.7c0.6-0.3,1-0.7,1.4-1.2c0.4-0.5,0.7-1.1,0.9-1.8c0.2-0.8,0.4-1.6,0.4-2.6c0-1.4-0.5-2.6-1.4-3.6
		c0.4-1.1,0.4-2.2-0.1-3.5c-0.3-0.1-0.8,0-1.4,0.2c-0.6,0.2-1.1,0.5-1.6,0.8L23.8,13c-1.1-0.3-2.2-0.5-3.3-0.5
		c-1.1,0-2.3,0.2-3.3,0.5c-0.2-0.1-0.4-0.3-0.7-0.5c-0.3-0.2-0.8-0.4-1.4-0.7c-0.7-0.3-1.2-0.3-1.5-0.2c-0.5,1.3-0.5,2.5-0.1,3.5
		c-0.9,1-1.4,2.2-1.4,3.6c0,1,0.1,1.9,0.4,2.6c0.2,0.8,0.5,1.4,0.9,1.8c0.4,0.5,0.8,0.9,1.4,1.2c0.6,0.3,1.1,0.5,1.6,0.7
		c0.5,0.1,1.1,0.2,1.8,0.3c-0.5,0.4-0.7,1-0.9,1.8c-0.2,0.1-0.5,0.2-0.8,0.3c-0.3,0.1-0.6,0.1-1,0.1c-0.4,0-0.8-0.1-1.1-0.4
		c-0.4-0.2-0.7-0.6-1-1.1c-0.2-0.4-0.5-0.7-0.8-0.9c-0.3-0.2-0.6-0.4-0.9-0.4l-0.3-0.1c-0.2,0-0.4,0-0.5,0.1
		c-0.1,0.1-0.1,0.1-0.1,0.2c0,0.1,0.1,0.2,0.2,0.2c0.1,0.1,0.1,0.2,0.2,0.2l0.1,0.1c0.3,0.1,0.5,0.3,0.8,0.7
		c0.2,0.3,0.4,0.6,0.5,0.9l0.2,0.4c0.2,0.4,0.4,0.8,0.8,1.1c0.4,0.3,0.7,0.4,1.2,0.5c0.4,0.1,0.8,0.1,1.2,0.1c0.4,0,0.7,0,1-0.1
		l0.4-0.1c0,0.4,0,1,0,1.5c0,0.6,0,0.9,0,0.9c0,0.2-0.1,0.4-0.2,0.5c-0.2,0.1-1.1,0.8,3.5,0.8C25,32.8,24.1,32.1,24,31.9z"/>
	<circle fill="none" stroke="#FFFFFF" stroke-width="2" stroke-miterlimit="10" cx="20.5" cy="20.5" r="18.3"/>
</g>
</svg>
