<?xml version="1.0" encoding="utf-8"?>
<!-- Generator: Adobe Illustrator 24.1.3, SVG Export Plug-In . SVG Version: 6.00 Build 0)  -->
<svg version="1.1" id="Layer_1" xmlns="http://www.w3.org/2000/svg" xmlns:xlink="http://www.w3.org/1999/xlink" x="0px" y="0px"
	 viewBox="0 0 507.2 507.2" style="enable-background:new 0 0 507.2 507.2;" xml:space="preserve">
<style type="text/css">
	.st0{fill:#FFFFFF;}
</style>
<path class="st0" d="M116.4,164.6C53,164.6,1.7,216,1.7,279.3c0,30.4,12.1,59.6,33.6,81.1c44.8,44.8,117.4,44.8,162.2,0
	s44.8-117.4,0-162.2C176,176.6,146.8,164.5,116.4,164.6z M39.1,202.1c7.4-7.4,15.8-13.7,25-18.7l13.1,9.9c1.2,0.9,2.4,1.7,3.6,2.4
	c4.1,2.4,7.6,5.6,10.3,9.5l7.6,11c2.3,3.3,2.2,7.7-0.3,10.9l-3.5,4.6c-1.2,1.5-3,2.3-4.9,2l-4-0.5c-6.9-0.9-13.6,2.4-17,8.4
	c-1.1,1.9-3.3,2.9-5.5,2.6l-9.1-1.2c-6.6-0.9-13.2,2.1-16.9,7.7c-3.6,5.3-3.7,12.2-0.3,17.5l6.1,9.6c4.2,6.7,12.9,8.9,19.9,5.2
	l6.3-3.4c2.7-1.5,6-1.4,8.7,0.2l11.9,7.1c0.9,0.6,2,0.8,3.1,0.8c4.4-0.1,8.8,2.2,11.6,6.2l5.8,8.1c0.5,0.6,0.9,1.2,1.4,1.8l7.6,9
	c0.2,0.3,0.3,0.6,0.3,1c-0.1,0.3-0.3,0.6-0.5,0.8l-11.5,8.8c-3.5,2.7-6.1,6.4-7.4,10.6l-3.8,12.5c-0.2,0.6-0.5,1.2-1,1.8l-3.7,4.5
	c-3.2,3.7-5.1,8.3-5.6,13.2c-0.1,1.2-0.9,2.2-2,2.7c-0.1,0-0.2,0-0.3,0c-0.1-0.1-0.1-0.1-0.1-0.2l-3.5-21.1c-0.5-3.1-1.8-6-3.6-8.4
	l-12.9-17c-1-1.2-1.7-2.7-2.1-4.2l-4.3-15.4c-1.8-6.4-6.8-11.4-13.2-13.2l-0.9-0.3c-1.5-0.4-2.8-1.1-3.9-2.2l-8-7.5
	c-1.1-1-2-2.2-2.7-3.4c-4.3-7.3-12.5-11.3-20.9-9.9C10.9,241.7,21.9,219.3,39.1,202.1z M193.6,356.6c-42.7,42.7-111.8,42.7-154.5,0
	c-20.5-20.5-32-48.3-32-77.2c0-2.6,0.1-5.2,0.3-7.8l0.9-0.2c6.3-1.2,12.6,1.7,15.8,7.2c1,1.7,2.3,3.3,3.7,4.7l8,7.5
	c1.8,1.6,3.9,2.8,6.2,3.5l0.9,0.3c4.5,1.3,8.1,4.8,9.4,9.3l4.3,15.4c0.6,2.2,1.6,4.2,3,6l12.9,17c1.3,1.8,2.2,3.8,2.6,6l3.5,21.1
	c0.4,2.8,2.8,4.9,5.7,4.9c0.8,0,1.5-0.2,2.2-0.4c3-1.2,5-4,5.3-7.2c0.4-3.8,1.9-7.3,4.3-10.2l3.7-4.5c0.9-1.1,1.6-2.3,2-3.7
	l3.8-12.5c1-3.1,2.9-5.9,5.5-7.9l11.5-8.8c1.4-1,2.3-2.6,2.6-4.3c0.3-1.9-0.2-3.9-1.5-5.4l-7.6-9c-0.4-0.5-0.8-1-1.2-1.5l-5.8-8.1
	c-3.9-5.5-10-8.6-16.2-8.5c0,0-0.1,0-0.1,0l-11.9-7.1c-4.3-2.6-9.7-2.7-14.1-0.3l-6.3,3.4c-4.4,2.4-9.9,0.9-12.6-3.3l-6.1-9.6
	c-2.2-3.5-2.2-8.1,0.2-11.5c2.6-3.8,7.1-5.9,11.7-5.3l9.1,1.2c4.4,0.6,8.6-1.5,10.9-5.3c2.4-4.1,6.9-6.3,11.6-5.7l4,0.5
	c3.8,0.5,7.6-1.1,10-4.1l3.5-4.6c3.9-5.1,4.1-12.1,0.4-17.3l-7.6-11c-3.1-4.5-7.2-8.3-12-11.1c-1.1-0.6-2.1-1.3-3.1-2.1l-11-8.3
	c37.4-17.7,81.6-12.7,114.2,12.8l-2.9,4c-6.9,7.6-13,15.8-18.2,24.7l-4.1,7.1c-1.7,3-1.3,6.9,1,9.5c2,2.3,4.8,3.8,7.9,4.2l2,0.2
	c6.7,0.8,12.3,5.5,14.2,12c1.9,6.2,0,13-4.9,17.3l-19.6,17.4c-2.5,2.3-3.9,5.5-3.9,8.8v4.6c0,3.2,1.5,6.1,4.2,7.9
	c4.1,2.7,6.8,7,7.2,11.9l0.4,4.5c0.4,4.1,3.9,7.3,8,7.2h11.5c7,0,13.3-4,16.1-10.4l0.7-1.5c2.5-5.6,7.9-9.4,14.1-9.6l2.7-0.1l0.1,0
	C215.1,329.4,205.9,344.4,193.6,356.6z M222,307.3l-1.3,0.1c-0.2,0-0.4,0-0.6,0l-2.7,0.1c-8.2,0.3-15.6,5.4-18.9,12.9l-0.7,1.5
	c-1.9,4.4-6.3,7.2-11.1,7.1h-11.5c-1.3,0.1-2.5-0.9-2.6-2.3l-0.5-4.6c-0.6-6.5-4.2-12.4-9.7-16c-1.1-0.7-1.7-1.9-1.7-3.2v-4.6
	c0-1.8,0.7-3.5,2-4.7l19.7-17.4c6.5-5.7,9-14.7,6.5-23c-2.6-8.5-10-14.7-18.8-15.8l-2-0.2c-1.7-0.2-3.3-1-4.4-2.3
	c-0.8-0.9-0.9-2.1-0.4-3.1l4.1-7.1c5-8.6,10.9-16.5,17.6-23.8c0.1-0.1,0.1-0.2,0.2-0.3l2.7-3.8c1.9,1.7,3.8,3.4,5.6,5.2
	c20.6,20.4,32.1,48.3,32,77.2C225.6,288.8,224.4,298.2,222,307.3L222,307.3z"/>
<path class="st0" d="M449.4,61.4H128.1c-23.7,0-41.1,16.8-41.1,40.5v67.4c5.1-1.3,10.4-2.3,15.8-2.9v-37.7h375.5v301.1H102.8v-38.3
	c-5.4-0.6-10.7-1.6-15.8-2.9v45.9c0,4.4,1.8,11.2,6.1,11.2h391.3c4.4,0,9.7-6.8,9.7-11.2V101.9C494.2,78.3,473.1,61.4,449.4,61.4z
	 M129.9,99.8c-1.5,1.5-3.5,2.3-5.6,2.3c-2.1,0-4.1-0.8-5.6-2.3c-1.5-1.5-2.3-3.5-2.3-5.6c0-2.1,0.9-4.1,2.3-5.6c2.9-3,8.2-3,11.2,0
	c1.5,1.5,2.3,3.5,2.3,5.6C132.2,96.3,131.4,98.3,129.9,99.8z M154.2,99.8c-1.5,1.5-3.5,2.3-5.6,2.3c-2.1,0-4.1-0.9-5.6-2.3
	c-1.5-1.5-2.3-3.5-2.3-5.6c0-2.1,0.8-4.1,2.3-5.6c2.9-2.9,8.2-3,11.2,0c1.5,1.5,2.3,3.5,2.3,5.6C156.5,96.3,155.7,98.4,154.2,99.8z
	 M178.8,99.8c-1.5,1.5-3.5,2.3-5.6,2.3c-2.1,0-4.2-0.8-5.6-2.3c-1.5-1.5-2.3-3.5-2.3-5.6c0-2.1,0.8-4.2,2.3-5.6c3-3,8.3-3,11.2,0
	c1.5,1.5,2.3,3.5,2.3,5.6C181.1,96.3,180.3,98.3,178.8,99.8z"/>
</svg>
