<?xml version="1.0" encoding="utf-8"?>
<!-- Generator: Adobe Illustrator 24.1.2, SVG Export Plug-In . SVG Version: 6.00 Build 0)  -->
<svg version="1.1" id="Capa_1" xmlns="http://www.w3.org/2000/svg" xmlns:xlink="http://www.w3.org/1999/xlink" x="0px" y="0px"
	 viewBox="0 0 512 512" style="enable-background:new 0 0 512 512;" xml:space="preserve">
<style type="text/css">
	.st0{fill:#FAFAFA;}
</style>
<circle class="st0" cx="48.9" cy="37.8" r="10.1"/>
<circle class="st0" cx="90.3" cy="37.8" r="10.1"/>
<circle class="st0" cx="131.8" cy="37.8" r="10.1"/>
<path class="st0" d="M484.5,0h-457C12.3,0,0,12.3,0,27.5v231.1c0,4.1,3.4,7.5,7.5,7.5s7.5-3.4,7.5-7.5v-183h482v72.8
	c0,4.1,3.4,7.5,7.5,7.5s7.5-3.4,7.5-7.5v-121C512,12.3,499.7,0,484.5,0L484.5,0z M15,60.6V27.5C15,20.6,20.6,15,27.5,15h457
	c6.9,0,12.5,5.6,12.5,12.5v33.1H15z"/>
<path class="st0" d="M504.5,176.1c-4.1,0-7.5,3.4-7.5,7.5v300.9c0,6.9-5.6,12.5-12.5,12.5h-457c-6.9,0-12.5-5.6-12.5-12.5V293.6
	c0-4.1-3.4-7.5-7.5-7.5S0,289.4,0,293.6v190.9C0,499.7,12.3,512,27.5,512h457c15.2,0,27.5-12.3,27.5-27.5V183.6
	C512,179.4,508.6,176.1,504.5,176.1L504.5,176.1z"/>
<path class="st0" d="M231.8,99H45.9c-4.1,0-7.5,3.4-7.5,7.5v358.6c0,4.1,3.4,7.5,7.5,7.5h185.9c4.1,0,7.5-3.4,7.5-7.5v-1.4
	c0,0,0,0,0,0V106.5C239.3,102.4,235.9,99,231.8,99z M53.4,137.3l77,148.5l-77,148.5L53.4,137.3z M58.2,114h161.2l-80.6,155.5
	L58.2,114z M138.8,302.1l80.6,155.5H58.2L138.8,302.1z M147.3,285.8l77-148.5v297.1L147.3,285.8z"/>
<path class="st0" d="M280.2,299.9h185.9c4.1,0,7.5-3.4,7.5-7.5V106.5c0-4.1-3.4-7.5-7.5-7.5H280.2c-4.1,0-7.5,3.4-7.5,7.5v185.9
	C272.7,296.5,276.1,299.9,280.2,299.9z M458.6,274.3l-74.8-74.8l74.8-74.8V274.3z M448,284.9H298.4l74.8-74.8L448,284.9z
	 M373.2,188.8L298.4,114H448L373.2,188.8z M362.6,199.4l-74.8,74.8V124.6L362.6,199.4z"/>
<path class="st0" d="M280.2,334.2h185.9c4.1,0,7.5-3.4,7.5-7.5s-3.4-7.5-7.5-7.5H280.2c-4.1,0-7.5,3.4-7.5,7.5
	S276.1,334.2,280.2,334.2z"/>
<path class="st0" d="M280.2,374.6h185.9c4.1,0,7.5-3.4,7.5-7.5s-3.4-7.5-7.5-7.5H280.2c-4.1,0-7.5,3.4-7.5,7.5
	S276.1,374.6,280.2,374.6z"/>
<path class="st0" d="M280.2,415h104c4.1,0,7.5-3.4,7.5-7.5s-3.4-7.5-7.5-7.5h-104c-4.1,0-7.5,3.4-7.5,7.5S276.1,415,280.2,415z"/>
</svg>
