<svg width="130" height="43.00000000000001" xmlns="http://www.w3.org/2000/svg">
 <metadata id="metadata8">image/svg+xml</metadata>

 <g>
  <title>Layer 1</title>
  <g transform="matrix(0.10229705383154744,0,0,-0.10229705383154744,5.5646117581782155,509.861123380637) " id="g10">
   <g transform="translate(0,-2.2445411682128906) scale(0.10000000149011612) " id="g12">
    <path id="path14" d="m8105.69974,46282.33026c-24.07,-4.65 -66.51,-12.62 -104.29,-12.62c-129.44,0 -202.75,54.43 -202.75,202.76c0,154.06 97.39,208.49 219.94,208.49c37.77,0 63.03,-6.9 82.44,-12.62l0,-72.78c-14.31,4.03 -54.33,10.92 -84.14,10.92c-71.07,0 -127.21,-10.92 -127.21,-131.15c0,-118.61 58.46,-131.77 122.64,-131.77c34.38,0 62.4,6.9 93.37,13.16l0,-74.39" fill-rule="nonzero" fill="#231f20"/>
    <path id="path16" d="m8470.04974,46475.87026c0,106.53 -34.93,139.2 -91.67,139.2c-57.84,0 -92.75,-38.4 -94.53,-139.2c-1.7,-100.79 35,-139.74 92.83,-139.74c57.29,0 93.37,33.22 93.37,139.74zm-277.25,-0.54c0,152.37 73.86,205.63 185.04,205.63c111.09,0 183.24,-56.76 183.24,-205.63c0,-148.33 -72.68,-205.62 -184.4,-205.62c-111.1,0 -183.88,55.51 -183.88,205.62" fill-rule="nonzero" fill="#231f20"/>
    <path id="path18" d="m8785.13974,46482.76026c42.44,0 80.22,12.63 80.22,63.56c0,50.4 -29.73,58.99 -79.04,58.99l-28.03,0l0,-122.55l26.85,0zm-113.33,192.47l111.1,0c122.55,0 172.95,-32.67 172.95,-125.42c0,-75.64 -38.94,-95.69 -84.78,-109.48l0,-6.8l12.09,-2.33c41.8,-15.49 66.43,-95.07 92.21,-144.93l0,-10.83l-95.7,0c-18.89,53.26 -38.94,134.01 -79.05,145.47l-42.34,0l0,-145.47l-86.48,0l0,399.79" fill-rule="nonzero" fill="#231f20"/>
    <path id="path20" d="m9163.88974,46474.17026l31.52,0c50.4,0 75.55,16.03 75.55,65.89c0,50.4 -25.15,64.72 -71.52,64.72l-35.55,0l0,-130.61zm-86.46,201.06l108.85,0c117.99,0 175.18,-26.95 175.18,-129.45c0,-102.59 -68.11,-132.3 -154.05,-132.3l-43.52,0l0,-138.04l-86.46,0l0,399.79" fill-rule="nonzero" fill="#231f20"/>
    <path id="path22" d="m9713.22974,46475.87026c0,106.53 -34.9,139.2 -91.6,139.2c-57.9,0 -92.8,-38.4 -94.6,-139.2c-1.7,-100.79 35,-139.74 92.9,-139.74c57.3,0 93.3,33.22 93.3,139.74zm-277.2,-0.54c0,152.37 73.9,205.63 185,205.63c111.1,0 183.3,-56.76 183.3,-205.63c0,-148.33 -72.7,-205.62 -184.4,-205.62c-111.1,0 -183.9,55.51 -183.9,205.62" fill-rule="nonzero" fill="#231f20"/>
    <path id="path24" d="m10028.32974,46482.76026c42.5,0 80.3,12.63 80.3,63.56c0,50.4 -29.8,58.99 -79.1,58.99l-28,0l0,-122.55l26.8,0zm-113.3,192.47l111.1,0c122.6,0 173,-32.67 173,-125.42c0,-75.64 -39,-95.69 -84.8,-109.48l0,-6.8l12.1,-2.33c41.8,-15.49 66.4,-95.07 92.2,-144.93l0,-10.83l-95.7,0c-18.9,53.26 -39,134.01 -79.1,145.47l-42.3,0l0,-145.47l-86.5,0l0,399.79" fill-rule="nonzero" fill="#231f20"/>
    <path id="path26" d="m10518.82974,46422.61026l-40.1,138.03l-4.6,22.39l-5.7,0l-4.6,-22.39l-41.8,-138.03l96.8,0zm-232,-138.04l142.7,393.53l84.8,0l149.4,-393.53l0,-9.13l-95.6,0l-33.3,89.34l-125.4,0l-29.2,-89.34l-93.4,0l0,9.13" fill-rule="nonzero" fill="#231f20"/>
    <path id="path28" d="m10811.02974,46606.48026l-112.3,-2.87l0,71.62l311.7,0l0,-71.62l-112.9,2.87l0,-331.04l-86.5,0l0,331.04" fill-rule="nonzero" fill="#231f20"/>
    <path id="path30" d="m11102.12974,46275.44026l0,399.79l86.5,0l0,-399.79l-86.5,0" fill-rule="nonzero" fill="#231f20"/>
    <path id="path32" d="m11568.32974,46475.87026c0,106.53 -34.9,139.2 -91.6,139.2c-57.8,0 -92.8,-38.4 -94.5,-139.2c-1.7,-100.79 34.9,-139.74 92.8,-139.74c57.3,0 93.3,33.22 93.3,139.74zm-277.1,-0.54c0,152.37 73.8,205.63 184.9,205.63c111.1,0 183.3,-56.76 183.3,-205.63c0,-148.33 -72.7,-205.62 -184.4,-205.62c-111.1,0 -183.8,55.51 -183.8,205.62" fill-rule="nonzero" fill="#231f20"/>
    <path id="path34" d="m11770.12974,46675.23026l75.6,0l147.8,-210.19l20.5,-34.38l5.2,0l0,244.57l86.5,0l0,-399.79l-73.8,0l-151.9,218.24l-17.2,29.19l-6.2,0l0,-247.43l-86.5,0l0,399.79" fill-rule="nonzero" fill="#231f20"/>
    <path id="path36" d="m2477.00974,49392.67026l-647.84,-2367.58l-376.46,0l-457.93,1719.74l-464.69,-1719.74l-376.516,0l-647.844,2367.58l373.109,0l461.289,-1719.74l464.692,1719.74l369.7,0l468.1,-1719.74l461.33,1719.74l373.06,0" fill-rule="nonzero" fill="#231f20"/>
    <path id="path38" d="m2649.73974,49385.86026l373.11,30.53l0,-579.99l-6.8,-217.08l13.61,0c172.95,64.45 312.06,94.98 481.65,94.98c301.9,0 505.38,-135.71 505.38,-654.63l0,-1034.58l-373.11,0l0,1004.06c0,312.04 -152.64,352.73 -325.58,352.73c-108.59,0 -200.17,-23.77 -295.15,-50.9l0,-1305.89l-373.11,0l0,2360.77" fill-rule="nonzero" fill="#231f20"/>
    <path id="path40" d="m5030.65974,48690.53026l254.41,0l50.89,-135.66l23.77,0c98.33,84.77 254.32,159.43 457.88,159.43c23.73,0 50.85,0 77.98,-3.4l0,-366.31c-67.77,10.11 -139.02,20.32 -210.28,20.32c-101.79,0 -183.15,-23.72 -281.54,-67.83l0,-1271.99l-373.11,0l0,1665.44" fill-rule="nonzero" fill="#231f20"/>
    <path id="path42" d="m9433.02974,47849.40026c0,315.37 -50.88,573.16 -349.34,573.16c-301.86,0 -376.51,-247.58 -376.51,-573.16c0,-301.88 61.05,-563.1 359.59,-563.1c298.45,0 366.26,247.61 366.26,563.1zm-352.74,864.9c529.14,0 732.74,-312.06 732.74,-864.9c0,-518.96 -190,-858.24 -739.55,-858.24c-549.46,0 -742.82,339.28 -742.82,858.24c0,552.84 220.48,864.9 749.63,864.9" fill-rule="nonzero" fill="#231f20"/>
    <path id="path44" d="m11106.12974,47849.40026c0,315.37 -51,573.16 -349.4,573.16c-301.9,0 -376.5,-247.58 -376.5,-573.16c0,-301.88 61,-563.1 359.5,-563.1c298.5,0 366.4,247.61 366.4,563.1zm-352.8,864.9c529.1,0 732.7,-312.06 732.7,-864.9c0,-518.96 -190,-858.24 -739.5,-858.24c-549.5,0 -742.9,339.28 -742.9,858.24c0,552.84 220.5,864.9 749.7,864.9" fill-rule="nonzero" fill="#231f20"/>
    <path id="path46" d="m11727.52974,47025.09026l0,2360.77l373.1,30.53l0,-2391.3l-373.1,0" fill-rule="nonzero" fill="#231f20"/>
    <path id="path48" d="m4528.72974,48883.85026c183.16,0 223.89,115.34 223.89,240.85c0,125.5 -30.52,237.44 -223.89,237.44c-186.55,0 -220.48,-111.94 -220.48,-237.44c0,-125.51 37.33,-240.85 220.48,-240.85" fill-rule="nonzero" fill="#231f20"/>
    <path id="path50" d="m7377.73974,47327.04026c-39.64,0 -72.44,0.46 -103.32,1.19c175.07,166.85 336.81,334.43 483.56,499.59c-21.59,-396.27 -167.66,-500.78 -380.24,-500.78zm3.4,1027.66c163.1,0 277.49,-39.77 335.68,-164.89c-174.09,-210.01 -379.61,-429.79 -610.41,-650.18l0,767.63c91.58,30.62 179.75,47.44 274.73,47.44zm1199.28,1359.16c-279.03,323.29 -1164.37,39.12 -2152.38,-644.68l0,347.21l-373.11,-30.53l0,-2360.76l373.11,0l0,1871.75c870.12,618.51 1637.15,903.89 1856.83,649.35c148.85,-172.47 15.53,-557.66 -315.49,-1027.67c-104.18,134.43 -250.05,195.77 -418.6,195.77c-186.65,0 -393.43,-84.77 -505.42,-145.83l-30.53,122.11l-281.53,0l0,-1488.27c-1107.25,-948.24 -2218.74,-1459.7 -2490.74,-1144.47c-142.44,165.08 -26.29,524.81 274.24,967.26l198.49,0l0,1665.43l-373.11,0l0,-1665.43l-0.07,0c-372.13,-554.95 -511.61,-1021.21 -320.56,-1242.61c330.06,-382.5 1517.3,93.7 2711.75,1068.76l0,-619.83l373.11,40.73l0,763.15c0,0 176,-33.92 335.78,-33.92c434.08,0 695.3,288.33 695.3,871.81c0,141.68 -14.48,263.09 -40.58,366.68c493.85,654.83 701.33,1221.56 483.51,1473.99" fill-rule="nonzero" fill="#231f20"/>
   </g>
  </g>
 </g>
</svg>