<?xml version="1.0" encoding="utf-8"?>
<!-- Generator: Adobe Illustrator 18.0.0, SVG Export Plug-In . SVG Version: 6.00 Build 0)  -->
<!DOCTYPE svg PUBLIC "-//W3C//DTD SVG 1.1//EN" "http://www.w3.org/Graphics/SVG/1.1/DTD/svg11.dtd">
<svg version="1.1" id="Layer_1" xmlns="http://www.w3.org/2000/svg" xmlns:xlink="http://www.w3.org/1999/xlink" x="0px" y="0px"
	 width="83px" height="82.5px" viewBox="0 0 83 82.5" enable-background="new 0 0 83 82.5" xml:space="preserve">
<g>
	<g>
		<path fill="#D2DE2A" d="M47,23.7l-1.7-0.5c-0.2-0.1-0.4,0-0.6,0.1c-0.2,0.1-0.3,0.3-0.4,0.5l-9.9,34.4c-0.1,0.2,0,0.4,0.1,0.7
			c0.1,0.2,0.3,0.3,0.5,0.4l1.7,0.5c0.2,0.1,0.4,0,0.6-0.1c0.2-0.1,0.3-0.3,0.4-0.5l9.9-34.4c0.1-0.2,0-0.4-0.1-0.7
			C47.4,23.9,47.2,23.8,47,23.7z"/>
		<path fill="#D2DE2A" d="M32.1,30.5c0-0.2-0.1-0.4-0.3-0.6l-1.3-1.3c-0.2-0.2-0.4-0.3-0.6-0.3s-0.4,0.1-0.6,0.3L16.9,40.9
			c-0.2,0.2-0.3,0.4-0.3,0.6s0.1,0.4,0.3,0.6l12.4,12.4c0.2,0.2,0.4,0.3,0.6,0.3c0.2,0,0.4-0.1,0.6-0.3l1.3-1.3
			c0.2-0.2,0.3-0.4,0.3-0.6c0-0.2-0.1-0.4-0.3-0.6L21.4,41.5l10.5-10.5C32,30.9,32.1,30.7,32.1,30.5z"/>
		<path fill="#D2DE2A" d="M65.1,40.9L52.7,28.5c-0.2-0.2-0.4-0.3-0.6-0.3c-0.2,0-0.4,0.1-0.6,0.3l-1.3,1.3c-0.2,0.2-0.3,0.4-0.3,0.6
			s0.1,0.4,0.3,0.6l10.5,10.5L50.1,52c-0.2,0.2-0.3,0.4-0.3,0.6c0,0.2,0.1,0.4,0.3,0.6l1.3,1.3c0.2,0.2,0.4,0.3,0.6,0.3
			c0.2,0,0.4-0.1,0.6-0.3l12.4-12.4c0.2-0.2,0.3-0.4,0.3-0.6C65.4,41.3,65.3,41.1,65.1,40.9z"/>
	</g>
</g>
<g>
	<path fill="#D2DE2A" d="M41,82.5c-22.6,0-40.9-18.4-40.9-40.9C0.1,19,18.4,0.6,41,0.6c22.6,0,40.9,18.4,40.9,40.9
		C81.9,64.1,63.6,82.5,41,82.5z M41,4.6C20.6,4.6,4.1,21.2,4.1,41.5S20.6,78.5,41,78.5s36.9-16.6,36.9-36.9S61.4,4.6,41,4.6z"/>
</g>
</svg>
