<svg width="41" height="60" viewBox="0 0 41 60" fill="none" xmlns="http://www.w3.org/2000/svg">
<path d="M33.9839 7.61998C33.9839 7.61998 33.7939 7.60998 33.4739 7.60998C32.1439 7.60998 28.5339 7.82998 26.2739 10.09C25.2839 11.08 24.6939 12.33 24.3339 13.53V9.90998C24.3639 8.83998 24.2539 4.88998 21.8439 2.47998C19.0239 -0.330022 14.1239 0.00997792 14.1239 0.00997792C14.1239 0.00997792 13.7839 4.90998 16.5939 7.71998C18.6039 9.72998 21.6639 10.12 23.2539 10.19V27.45C23.3539 30.34 22.2539 33.16 20.2139 35.2C17.0139 38.4 11.7939 38.4 8.59391 35.2C7.76391 34.36 7.14391 33.31 6.88391 32.16C6.37391 29.93 7.00391 27.72 8.52391 26.15C9.23391 25.42 10.1439 24.89 11.1439 24.69C12.7839 24.36 14.4039 24.83 15.5839 25.91C16.2439 26.51 16.7239 27.33 16.8639 28.21C17.0639 29.5 16.6539 30.75 15.7639 31.64C14.6139 32.79 12.6039 32.79 11.4539 31.64C11.0939 32.14 11.2439 32.86 11.7739 33.16C12.3139 33.46 12.9039 33.61 13.5939 33.61C14.6139 33.61 15.6239 33.23 16.3739 32.54C17.7439 31.27 18.3039 29.38 17.8039 27.48C17.6139 26.77 17.2439 26.1 16.7539 25.55C14.3939 22.91 10.3139 22.83 7.83391 25.3C4.89391 28.24 4.89391 33.02 7.83391 35.96C9.95391 38.08 12.9139 39.05 15.9539 38.55C17.8639 38.24 19.5939 37.32 20.9639 35.96C23.2139 33.71 24.4339 30.59 24.3139 27.42V17.8C25.6539 17.8 29.2539 17.57 31.5139 15.32C34.3239 12.51 33.9839 7.60998 33.9839 7.60998V7.61998Z" fill="#E8E2D6"/>
<path d="M39.5841 42.03C39.5841 42.03 36.0041 39.63 35.4541 34.96C35.4041 34.52 35.3541 34.03 35.3041 33.51C34.9541 29.86 34.0441 23.13 30.1941 18.87C28.8941 19.45 27.5641 19.75 26.4341 19.9C30.4641 23.81 31.2541 29.87 31.6041 33.54C31.6541 34.07 31.7041 34.56 31.7541 35.01C32.2241 39.02 34.6541 41.47 35.7841 42.41L32.6741 44.9L30.4541 53.74C25.4541 55.82 17.8341 50.61 17.8341 50.61L17.6041 57.84L10.1341 57.93L8.5641 47.06L8.5341 46.86L8.2541 46.63C-1.6559 38.22 0.874099 29.61 3.2741 25.23C5.2741 21.57 11.8341 15.44 21.1141 16.04V15.01C10.7741 14.42 4.4541 20.82 2.3241 24.72C-0.225901 29.38 -2.9359 38.53 7.5341 47.44L9.2041 59.03H20.3741L20.5341 55.11C22.6441 56.32 27.7741 58.57 33.1541 55.74C33.3141 55.66 33.4241 55.51 33.4741 55.34L36.2341 45.62L40.1941 42.45L39.5741 42.04L39.5841 42.03Z" fill="#E8E2D6"/>
</svg>
