<?xml version="1.0"?>
<svg xmlns="http://www.w3.org/2000/svg" height="512px" viewBox="0 0 512 512" width="512px"><path d="m317 210c-33.089844 0-60 26.910156-60 60h120c0-33.089844-26.910156-60-60-60zm0 0" fill="#FFFFFF"/><path d="m317 90c-16.539062 0-30 13.460938-30 30s13.460938 30 30 30 30-13.460938 30-30-13.460938-30-30-30zm0 0" fill="#FFFFFF"/><path d="m317 0c-107.519531 0-195 87.480469-195 195 0 48.371094 17.808594 92.589844 47.078125 126.710938l-20.390625 20.390624-21.210938-21.210937-127.476562 127.476563 63.632812 63.632812 127.480469-127.480469-21.214843-21.207031 20.390624-20.390625c34.121094 29.269531 78.339844 47.078125 126.710938 47.078125 107.519531 0 195-87.480469 195-195s-87.480469-195-195-195zm90 300h-180v-30c0-49.628906 40.371094-90 90-90-33.089844 0-60-26.910156-60-60s26.910156-60 60-60 60 26.910156 60 60-26.910156 60-60 60c49.628906 0 90 40.371094 90 90zm0 0" fill="#FFFFFF"/></svg>
