<?xml version="1.0" encoding="utf-8"?>
<!-- Generator: Adobe Illustrator 22.0.0, SVG Export Plug-In . SVG Version: 6.00 Build 0)  -->
<svg version="1.1" id="Layer_1" xmlns="http://www.w3.org/2000/svg" xmlns:xlink="http://www.w3.org/1999/xlink" x="0px" y="0px"
	 viewBox="0 0 419.5 201.3" style="enable-background:new 0 0 419.5 201.3;" xml:space="preserve">
<style type="text/css">
	.st0{fill:#FFFFFF;}
</style>
<g>
	<g>
		<polygon class="st0" points="238.5,28.2 263.9,28.2 279.1,28.2 283.4,7.9 263.9,7.9 238.5,7.9 174.2,7.9 165.5,7.9 161.3,28.2 
			174.2,28.2 		"/>
		<polygon class="st0" points="238.5,58.7 263.9,58.7 272.7,58.7 277,38.3 263.9,38.3 238.5,38.3 174.2,38.3 159.3,38.3 154.9,58.7 
			174.2,58.7 		"/>
	</g>
	<g>
		<path class="st0" d="M139.5,131.7h1.5h26.3c2.6,0,4.7-0.2,6.8-0.3c4.7-0.3,8.2-1.1,10.8-2.3c3.8-1.8,6.7-4.3,9-7.6
			c2.1-3.2,3.4-6.8,3.4-10.8c0-6.2-4.1-10.2-12.5-11.7l0.2-0.2c9.4-2.3,14.9-7,16.6-14.2c0.2-1.1,0.3-2.3,0.3-3.2
			c0-3-0.9-5.6-2.9-7.7c-2.1-2.1-5.2-3.6-9.1-4.4c-2.4-0.5-6.4-0.6-11.7-0.6h-4h-21.3L141,124.3L139.5,131.7z M167.5,80.2h6.7h2.9
			c2.4,0,4.3,0.5,5.3,1.5c1.4,1.2,1.7,3,1.2,5.4c-0.6,2.9-2.1,5-4.6,6.2c-0.9,0.4-2.6,0.6-4.9,0.8h-1.5h-8.2L167.5,80.2z
			 M162.2,105.3h9.1c1.1,0,2,0,2.9,0.1c3.7,0.6,5.3,2.3,5.3,5.3c0,0.6,0,1.4-0.2,2.1c-0.8,3-2.4,5.2-5.2,6.3
			c-1.5,0.6-3.3,0.9-5.5,0.9H159L162.2,105.3z"/>
		<path class="st0" d="M57.5,67.1c-8.8,0-16.1,2-21.6,6.1c-4.9,3.5-7.9,8-9.1,13.6c-0.3,1.5-0.4,2.9-0.4,4.1
			c0,6.5,4.1,10.9,12.3,13.2l14.6,4.1c3,0.8,4.4,2.3,4.4,4.4c0,0.4,0,1.1-0.1,1.7c-1.1,4.7-4.7,7.1-11,7.1c-6,0-9-2.3-9-6.8
			c0-0.8,0.1-1.8,0.5-2.9H20.4c-0.5,2.1-0.6,3.9-0.6,5.3c0,3.3,0.8,6.2,2.4,8.6c3.5,5,10.7,7.4,21.5,7.4c8.2,0,15.2-1.7,20.9-4.9
			c6.1-3.6,9.9-8.6,11.3-15.4c0.5-1.7,0.6-3.2,0.6-4.5c0-4.2-1.7-7.4-4.9-9.5c-2-1.3-5.3-2.7-10.2-4.1l-11.1-3
			c-3.5-0.9-5.2-2.6-5.2-5c0-0.4,0-0.9,0.2-1.3c0.3-2,1.4-3.5,3.2-4.9c1.8-1.2,4-1.8,6.5-1.8c4.6,0,6.8,2,6.8,5.7
			c0,0.8-0.1,1.8-0.5,2.9h17.8c0.5-2.1,0.6-4.1,0.6-5.6C79.8,72,72.3,67.1,57.5,67.1"/>
		<polygon class="st0" points="132.5,119.4 101.7,119.4 104.4,106.1 132.9,106.1 135.5,94 107.2,94 109.9,80.9 140.1,80.9 141,76.4 
			142.7,68.9 141,68.9 95.2,68.9 81.8,131.7 129.9,131.7 		"/>
		<path class="st0" d="M301.1,68.8h-1.4l-35.8,58.5l-2.6,4.4h2.6h14.9l7-12.7H301h10l1.7,12.7h19.8L321,68.8H301.1z M301.1,107.4
			h-8.7l8.7-15.8l5.8-10.6h0.1l2.6,26.4H301.1z"/>
		<polygon class="st0" points="397.9,80.9 400.5,68.9 353,68.9 339.6,131.7 387.9,131.7 390.4,119.4 359.5,119.4 362.4,106.1 
			390.8,106.1 393.5,94 365,94 367.9,80.9 		"/>
		<path class="st0" d="M257.7,97.1c2.7-1.5,4.9-3.5,6.2-6.1c1.1-1.7,1.7-3.5,2.1-5.6c0.3-1.7,0.6-3.3,0.6-4.9c0-2.9-0.9-5.4-2.4-7.4
			l-0.3-0.3c-1.7-2-4.4-3.3-8.2-3.8c-1.7-0.3-4.9-0.3-9.9-0.3h-7.3h-21.9l-13.4,62.9h17.5l5.3-24.5h7.3c2.4,0,4.3,0.3,5.2,0.9
			c0.1,0,0.3,0.1,0.5,0.1c0.9,0.9,1.5,2.1,1.5,4.1c0,0.9-0.2,2.7-0.5,5.2c-0.8,7.1-1.1,12-0.9,14.3h19c-0.3-2.6-0.1-7.7,0.3-15.6
			c0.2-2.6,0.3-4.5,0.3-5.6c0-3.3-0.8-5.6-2.1-7.1c-1.7-1.7-4.7-2.6-9.3-2.6l0.2-0.4C251.4,99.7,254.9,98.6,257.7,97.1 M242.3,95.2
			c-0.8,0.3-2,0.4-3.8,0.4c-0.9,0.2-2.1,0.2-3.5,0.2h-6.6l3.2-15.5h6.6h0.3c3.2,0,5.3,0.3,6.7,0.8c2.4,0.8,3.5,2.4,3.5,4.8
			c0,0.6,0,1.4-0.3,2.1C247.6,91.8,245.6,94.3,242.3,95.2"/>
	</g>
	<g>
		<polygon class="st0" points="174.2,172.1 141,172.1 130.9,172.1 126.7,192.4 141,192.4 174.2,192.4 238.5,192.4 244.6,192.4 
			248.8,172.1 238.5,172.1 		"/>
		<polygon class="st0" points="174.2,141.8 141,141.8 137.3,141.8 133.1,162 141,162 174.2,162 238.5,162 250.8,162 255.2,141.8 
			238.5,141.8 		"/>
	</g>
</g>
</svg>
