<?xml version="1.0"?>
<svg xmlns="http://www.w3.org/2000/svg" height="512px" version="1.1" viewBox="0 0 595 595.3665" width="512px">
<g id="surface1">
<path d="M 290.722656 141.039062 L 159.445312 9.761719 C 146.230469 -3.253906 125.011719 -3.253906 111.796875 9.761719 L 9.945312 111.617188 C -3.070312 124.828125 -3.070312 146.046875 9.945312 159.261719 L 141.222656 290.542969 Z M 48.535156 166.335938 L 112.476562 102.5625 C 116.898438 98.144531 124.074219 98.144531 128.492188 102.5625 C 132.910156 106.980469 132.910156 114.15625 128.492188 118.578125 L 64.664062 182.347656 Z M 89.109375 206.964844 L 117.003906 178.671875 C 121.425781 174.25 128.601562 174.25 133.019531 178.671875 C 137.4375 183.089844 137.4375 190.265625 133.019531 194.683594 L 105.121094 222.75 Z M 157.464844 219.527344 C 162.382812 215.664062 169.496094 216.519531 173.351562 221.433594 C 176.527344 225.476562 176.578125 231.152344 173.476562 235.257812 L 145.582031 263.152344 L 129.566406 247.136719 Z M 157.464844 219.527344 " style=" fill-rule:nonzero;fill-opacity:1;" stroke="#FFFFFF" fill="#FFFFFF"/>
<path d="M 583.214844 104.484375 C 583.238281 53.238281 541.703125 11.667969 490.453125 11.644531 C 465.816406 11.636719 442.191406 21.417969 424.773438 38.847656 L 64.945312 398.789062 C 63.609375 400.101562 62.632812 401.742188 62.117188 403.542969 L 12.265625 568.660156 C 10.855469 572.660156 11.96875 577.113281 15.09375 579.976562 C 18.195312 582.675781 22.402344 583.726562 26.410156 582.804688 L 191.527344 532.953125 C 193.304688 532.382812 194.929688 531.414062 196.28125 530.125 L 556.222656 170.183594 C 573.640625 152.769531 583.363281 129.113281 583.214844 104.484375 Z M 78.527344 543.367188 C 72.640625 531.914062 63.101562 522.75 51.421875 517.335938 L 78.355469 428.214844 L 166.855469 516.714844 Z M 130.585938 448.472656 L 88.996094 406.878906 L 371.074219 124.460938 L 412.667969 166.109375 Z M 486.511719 207.699219 L 387.316406 108.503906 L 412.101562 83.71875 L 511.351562 182.96875 Z M 486.511719 207.699219 " style=" fill-rule:nonzero;fill-opacity:1;" stroke="#FFFFFF" fill="#FFFFFF"/>
<path d="M 585.253906 435.570312 L 453.972656 304.289062 L 304.304688 453.960938 L 435.582031 585.242188 C 448.796875 598.253906 470.015625 598.253906 483.226562 585.242188 L 585.082031 483.386719 C 598.097656 470.171875 598.097656 448.953125 585.082031 435.742188 Z M 331.804688 449.433594 L 359.757812 421.535156 C 364.179688 417.117188 371.355469 417.117188 375.773438 421.535156 C 380.191406 425.957031 380.191406 433.132812 375.773438 437.550781 L 347.875 465.449219 Z M 372.261719 489.894531 L 400.160156 461.996094 C 404.578125 457.527344 411.789062 457.492188 416.257812 461.910156 C 420.730469 466.332031 420.761719 473.539062 416.34375 478.011719 L 388.050781 505.90625 Z M 492.507812 482.535156 L 428.679688 546.476562 L 412.664062 530.464844 L 476.496094 466.578125 C 480.914062 462.160156 488.089844 462.160156 492.507812 466.578125 C 496.925781 470.996094 496.925781 478.171875 492.507812 482.59375 Z M 492.507812 482.535156 " style=" fill-rule:nonzero;fill-opacity:1;" stroke="#FFFFFF" fill="#FFFFFF"/>
</g>
</svg>
